<svg width="125" height="124" viewBox="0 0 125 124" fill="none" xmlns="http://www.w3.org/2000/svg">
<path id="add" d="M57.6594 123.986C55.4503 123.986 53.6594 122.195 53.6594 119.986V74.9376C53.6594 72.7284 51.8686 70.9376 49.6594 70.9376H4.61133C2.40219 70.9376 0.611328 69.1467 0.611328 66.9376V57.2549C0.611328 55.0457 2.40219 53.2549 4.61133 53.2549H49.6594C51.8686 53.2549 53.6594 51.464 53.6594 49.2549V4.20679C53.6594 1.99765 55.4503 0.206787 57.6594 0.206787H67.3421C69.5513 0.206787 71.3421 1.99765 71.3421 4.20679V49.2549C71.3421 51.464 73.133 53.2549 75.3421 53.2549H120.39C122.599 53.2549 124.39 55.0457 124.39 57.2549V66.9376C124.39 69.1467 122.599 70.9376 120.39 70.9376H75.3421C73.133 70.9376 71.3421 72.7284 71.3421 74.9376V119.986C71.3421 122.195 69.5513 123.986 67.3421 123.986H57.6594Z" fill="#BDBDBD"/>
</svg>
