<svg width="61" height="60" viewBox="0 0 61 60" fill="none" xmlns="http://www.w3.org/2000/svg">
<rect x="0.600098" width="60" height="60" rx="11.25" fill="#E6FFE7"/>
<mask id="mask0_11397_30581" style="mask-type:alpha" maskUnits="userSpaceOnUse" x="15" y="15" width="31" height="30">
<rect x="15.6001" y="15" width="30" height="30" fill="#2760EA"/>
</mask>
<g mask="url(#mask0_11397_30581)">
<mask id="mask1_11397_30581" style="mask-type:alpha" maskUnits="userSpaceOnUse" x="15" y="15" width="31" height="30">
<rect x="15.6001" y="15" width="30" height="30" fill="#D9D9D9"/>
</mask>
<g mask="url(#mask1_11397_30581)">
<path d="M37.5376 29.7082L33.4126 25.5624L34.8813 24.1041L37.5376 26.7603L42.8501 21.4478L44.3084 22.9374L37.5376 29.7082ZM26.8501 29.9791C25.4751 29.9791 24.3327 29.5242 23.423 28.6145C22.5133 27.7048 22.0584 26.5624 22.0584 25.1874C22.0584 23.8124 22.5133 22.6701 23.423 21.7603C24.3327 20.8506 25.4751 20.3958 26.8501 20.3958C28.2251 20.3958 29.3675 20.8506 30.2772 21.7603C31.1869 22.6701 31.6418 23.8124 31.6418 25.1874C31.6418 26.5624 31.1869 27.7048 30.2772 28.6145C29.3675 29.5242 28.2251 29.9791 26.8501 29.9791ZM16.8501 39.9999V36.8749C16.8501 36.1527 17.0324 35.4947 17.397 34.901C17.7616 34.3072 18.2737 33.861 18.9334 33.5624C20.4057 32.8888 21.7691 32.4044 23.0238 32.1093C24.2785 31.8142 25.5528 31.6666 26.8467 31.6666C28.1406 31.6666 29.4126 31.8142 30.6626 32.1093C31.9126 32.4044 33.2737 32.8888 34.7459 33.5624C35.4057 33.8749 35.9213 34.3246 36.2928 34.9114C36.6643 35.4982 36.8501 36.1527 36.8501 36.8749V39.9999H16.8501ZM18.9334 37.9166H34.7668V36.8749C34.7668 36.5763 34.6852 36.2951 34.522 36.0312C34.3588 35.7673 34.1418 35.5693 33.8709 35.4374C32.5098 34.7916 31.298 34.3489 30.2355 34.1093C29.173 33.8697 28.0445 33.7499 26.8501 33.7499C25.6557 33.7499 24.5237 33.8697 23.4543 34.1093C22.3848 34.3489 21.1695 34.7916 19.8084 35.4374C19.5376 35.5693 19.324 35.7673 19.1678 36.0312C19.0115 36.2951 18.9334 36.5763 18.9334 36.8749V37.9166ZM26.8501 27.8958C27.6209 27.8958 28.265 27.6371 28.7824 27.1197C29.2998 26.6023 29.5584 25.9582 29.5584 25.1874C29.5584 24.4166 29.2998 23.7725 28.7824 23.2551C28.265 22.7378 27.6209 22.4791 26.8501 22.4791C26.0793 22.4791 25.4352 22.7378 24.9178 23.2551C24.4004 23.7725 24.1418 24.4166 24.1418 25.1874C24.1418 25.9582 24.4004 26.6023 24.9178 27.1197C25.4352 27.6371 26.0793 27.8958 26.8501 27.8958Z" fill="#61C465"/>
</g>
</g>
</svg>
