<svg width="18" height="28" viewBox="0 0 18 28" fill="none" xmlns="http://www.w3.org/2000/svg">
<g id="Asset 1 1">
<path id="Vector" d="M14.1162 1.25C14.2753 1.28992 14.4366 1.32518 14.5943 1.36976C15.7716 1.70575 16.6363 2.74366 16.6363 3.90931C16.6504 7.44575 16.6504 10.982 16.6363 14.518C16.6293 15.9817 15.3534 17.1633 13.7993 17.1846C12.5692 17.2019 11.3391 17.1892 10.1089 17.1892H9.80686V25.259H10.0949C10.9476 25.259 11.7996 25.2557 12.6523 25.259C13.1248 25.259 13.4726 25.5757 13.4797 25.9909C13.4867 26.406 13.1346 26.7473 12.6495 26.748C10.215 26.7507 7.78105 26.7507 5.34754 26.748C4.86379 26.748 4.51102 26.4153 4.51806 25.9902C4.52439 25.5744 4.87365 25.2583 5.34542 25.2583C6.28545 25.2543 7.22548 25.2583 8.18663 25.2583V17.1892H7.91765C6.73117 17.1892 5.5454 17.1892 4.35892 17.1892C2.60984 17.1853 1.35787 16.0003 1.35717 14.3436C1.35506 10.9405 1.37336 7.53668 1.34872 4.13353C1.33675 2.50747 2.58378 1.42964 3.81955 1.28526C3.84349 1.28526 3.86461 1.26198 3.88996 1.25H14.1162ZM15.0654 9.21796C15.0654 7.50807 15.0654 5.79862 15.0654 4.08962C15.0654 3.25796 14.5169 2.74499 13.6318 2.74433C10.5481 2.74433 7.46489 2.74433 4.38216 2.74433C3.47945 2.74433 2.93937 3.2533 2.93937 4.10558C2.93937 7.51605 2.93937 10.9265 2.93937 14.337C2.93937 15.1859 3.48227 15.6949 4.38638 15.6949H13.6106C14.5295 15.6949 15.0675 15.1879 15.0675 14.321C15.0666 12.6196 15.0659 10.9185 15.0654 9.21796Z" fill="#FFC78F" stroke="#FFC78F" stroke-width="0.831652"/>
</g>
</svg>
