<svg width="28" height="28" viewBox="0 0 28 28" fill="none" xmlns="http://www.w3.org/2000/svg">
<circle cx="14" cy="14" r="14" fill="#DAEDFF"/>
<path d="M15.7194 7.46667H20.0663C20.4175 7.58854 20.5394 7.84092 20.5346 8.20364C20.5221 9.15556 20.5308 10.1075 20.5308 11.0594C20.5308 11.424 20.5341 11.7882 20.5308 12.1528C20.5273 12.3024 20.4657 12.4447 20.3592 12.5496C20.2526 12.6546 20.1094 12.714 19.9598 12.7152C19.6105 12.7185 19.3629 12.458 19.362 12.0766C19.362 11.2662 19.362 10.4553 19.362 9.64447C19.362 9.59649 19.3582 9.54851 19.3562 9.51253L15.907 12.9671C16.4991 13.7163 16.8745 14.6136 16.9923 15.5613C17.0943 16.345 17.0142 17.1416 16.7581 17.8893C16.3743 19.0182 15.6863 19.9236 14.695 20.5805C13.5915 21.3117 12.3752 21.5962 11.0558 21.4124C10.0891 21.2848 9.1794 20.8825 8.43463 20.2532C7.43858 19.4136 6.82108 18.3542 6.60757 17.0664C6.58326 16.919 6.55847 16.772 6.5332 16.6255V15.805C6.54232 15.7662 6.55192 15.7273 6.56007 15.688C6.64404 15.3041 6.69777 14.9074 6.81772 14.5336C7.11951 13.597 7.66888 12.8169 8.42264 12.1869C9.15012 11.573 10.0335 11.1728 10.9747 11.0306C12.0243 10.8567 13.1021 11.0174 14.0554 11.4898C14.4047 11.6611 14.7296 11.8813 15.0784 12.0876L18.5185 8.67816L18.4916 8.63834H17.034C16.6555 8.63834 16.2774 8.64122 15.8993 8.63834C15.5817 8.63498 15.3418 8.44114 15.2885 8.15566C15.2353 7.87018 15.3912 7.61637 15.6791 7.49594C15.6936 7.48782 15.7072 7.47799 15.7194 7.46667ZM15.8595 16.2105C15.8587 15.404 15.6189 14.6159 15.1703 13.9458C14.7217 13.2756 14.0845 12.7535 13.3392 12.4454C12.594 12.1373 11.7741 12.0571 10.9832 12.2149C10.1924 12.3727 9.46606 12.7614 8.89609 13.3319C8.32612 13.9024 7.93808 14.6291 7.78103 15.4201C7.62398 16.2111 7.70497 17.0309 8.01375 17.7759C8.32254 18.5209 8.84526 19.1576 9.51585 19.6055C10.1864 20.0535 10.9748 20.2926 11.7812 20.2926C12.3173 20.2935 12.8484 20.1885 13.3438 19.9836C13.8393 19.7787 14.2894 19.478 14.6683 19.0987C15.0472 18.7194 15.3475 18.269 15.5519 17.7734C15.7564 17.2777 15.8609 16.7466 15.8595 16.2105Z" fill="#46BFF3"/>
</svg>
