<svg width="25" height="24" viewBox="0 0 25 24" fill="none" xmlns="http://www.w3.org/2000/svg">
<g id="build">
<mask id="mask0_5449_150" style="mask-type:alpha" maskUnits="userSpaceOnUse" x="0" y="0" width="25" height="24">
<rect id="Bounding box" x="0.5" width="24" height="24" fill="#D9D9D9"/>
</mask>
<g mask="url(#mask0_5449_150)">
<path id="build_2" d="M17.65 20.7L11.6 14.6C11.2667 14.7333 10.9292 14.8333 10.5875 14.9C10.2458 14.9667 9.88333 15 9.5 15C7.83333 15 6.41667 14.4167 5.25 13.25C4.08333 12.0833 3.5 10.6667 3.5 9C3.5 8.4 3.58333 7.82917 3.75 7.2875C3.91667 6.74583 4.15 6.23333 4.45 5.75L8.1 9.4L9.9 7.6L6.25 3.95C6.73333 3.65 7.24583 3.41667 7.7875 3.25C8.32917 3.08333 8.9 3 9.5 3C11.1667 3 12.5833 3.58333 13.75 4.75C14.9167 5.91667 15.5 7.33333 15.5 9C15.5 9.38333 15.4667 9.74583 15.4 10.0875C15.3333 10.4292 15.2333 10.7667 15.1 11.1L21.2 17.15C21.4 17.35 21.5 17.5917 21.5 17.875C21.5 18.1583 21.4 18.4 21.2 18.6L19.1 20.7C18.9 20.9 18.6583 21 18.375 21C18.0917 21 17.85 20.9 17.65 20.7ZM18.375 18.575L19.05 17.9L12.65 11.5C12.95 11.1667 13.1667 10.7792 13.3 10.3375C13.4333 9.89583 13.5 9.45 13.5 9C13.5 8 13.1792 7.12917 12.5375 6.3875C11.8958 5.64583 11.1 5.2 10.15 5.05L12 6.9C12.2 7.1 12.3 7.33333 12.3 7.6C12.3 7.86667 12.2 8.1 12 8.3L8.8 11.5C8.6 11.7 8.36667 11.8 8.1 11.8C7.83333 11.8 7.6 11.7 7.4 11.5L5.55 9.65C5.7 10.6 6.14583 11.3958 6.8875 12.0375C7.62917 12.6792 8.5 13 9.5 13C9.93333 13 10.3667 12.9333 10.8 12.8C11.2333 12.6667 11.625 12.4583 11.975 12.175L18.375 18.575Z" fill="#999999"/>
</g>
</g>
</svg>
