<svg width="180" height="200" viewBox="0 0 236 200" fill="none" xmlns="http://www.w3.org/2000/svg">
<path d="M117.661 200C182.643 200 235.321 194.033 235.321 186.673C235.321 179.312 182.643 173.346 117.661 173.346C52.6786 173.346 0.000244141 179.312 0.000244141 186.673C0.000244141 194.033 52.6786 200 117.661 200Z" fill="#EFF2F9"/>
<path d="M148.149 149.853C147.968 149.853 147.785 149.822 147.606 149.757L84.0291 126.835C83.1956 126.535 82.7641 125.616 83.0646 124.783C83.365 123.95 84.2836 123.517 85.117 123.818L148.694 146.74C149.527 147.041 149.959 147.959 149.658 148.793C149.422 149.446 148.807 149.853 148.149 149.853Z" fill="#5B77BD"/>
<path d="M81.9314 149.853C81.275 149.853 80.6597 149.447 80.4233 148.795C80.1219 147.962 80.5525 147.043 81.385 146.741L145.717 123.443C146.549 123.141 147.469 123.572 147.77 124.404C148.071 125.237 147.641 126.156 146.808 126.458L82.4768 149.756C82.2969 149.821 82.1122 149.853 81.9314 149.853Z" fill="#5B77BD"/>
<path d="M81.873 176.087L91.5497 102.695H139.603L149.433 176.093C149.616 177.455 150.778 178.473 152.153 178.473C153.814 178.473 155.094 177.009 154.874 175.364L144.724 99.586C144.542 98.2234 143.379 97.2053 142.004 97.2053H89.1432C87.7663 97.2053 86.6018 98.2253 86.4219 99.5908L76.4313 175.368C76.2141 177.012 77.4944 178.472 79.1517 178.472C80.5296 178.472 81.6931 177.452 81.873 176.087Z" fill="#1640AB"/>
<path d="M136.869 98.6128L92.3629 99.9505C81.4863 99.9505 69.8394 93.9979 68.1697 83.2504C65.9373 68.8793 66.565 54.5015 67.5716 41.7542C69.0213 23.394 73.6104 14.3057 84.9664 5.34949C84.9664 5.34949 93.6978 35.1347 85.0746 76.3821C88.3662 92.0564 136.869 98.6128 136.869 98.6128Z" fill="#2C4C9C"/>
<path d="M84.965 5.35048C84.965 5.35048 95.8455 -2.98856 114.097 1.15465C132.348 5.29786 135.58 49.6417 134.87 98.6741H84.965C84.965 98.6741 69.4706 53.2356 84.965 5.35048Z" fill="#4566B9"/>
<path d="M159.497 99.9506H92.5358C89.4634 99.9506 86.9727 97.4599 86.9727 94.3874V92.4947C86.9727 89.4222 89.4634 86.9315 92.5358 86.9315H159.497C162.569 86.9315 165.06 89.4222 165.06 92.4947V94.3874C165.06 97.4599 162.569 99.9506 159.497 99.9506Z" fill="#4566B9"/>
<path d="M207.274 52.3027V55.7015C207.274 57.6583 206.093 59.2428 204.633 59.2428H20.9305C19.4723 59.2428 18.2905 57.6583 18.2905 55.7015V52.3027C18.2905 50.3479 19.4723 48.7633 20.9305 48.7633H204.633C206.093 48.7633 207.274 50.3479 207.274 52.3027Z" fill="#1640AB"/>
<path d="M207.274 53.3801H18.2905V54.935H207.274V53.3801Z" fill="#082876"/>
<path d="M196.696 67.9809H34.1334C30.5662 67.9809 27.6755 65.0893 27.6755 61.523V59.2026H203.154V61.523C203.154 65.0893 200.263 67.9809 196.696 67.9809Z" fill="#082876"/>
<path d="M193.999 111.317H39.5742V117.336H193.999V111.317Z" fill="#1640AB"/>
<path d="M28.4391 191.941L58.3362 67.981H47.8366L17.9395 191.941H28.4391Z" fill="#1640AB"/>
<path d="M204.927 191.941L175.03 67.981H185.53L215.427 191.941H204.927Z" fill="#1640AB"/>
</svg>
