<svg width="36" height="36" viewBox="0 0 36 36" fill="none" xmlns="http://www.w3.org/2000/svg">
<circle cx="18" cy="18" r="18" fill="#E0F0FF"/>
<path d="M14.6278 27.9995V26.5947H10V25.2711H11.0923V9.40922H14.6248V8L26.5183 9.48699V25.2667H27.6135V26.5923C27.524 26.5923 27.4418 26.5957 27.3596 26.5923C26.1774 26.5331 25.0117 26.6959 23.8456 26.8515C22.7573 26.9982 21.6665 27.1215 20.5772 27.2575C19.4879 27.3935 18.3858 27.5353 17.2897 27.6728C16.5163 27.7706 15.7425 27.8635 14.9687 27.9604C14.9189 27.9702 14.8699 27.9835 14.822 28L14.6278 27.9995ZM25.1761 10.6585L15.9675 9.50655V26.4969L25.1771 25.3445L25.1761 10.6585ZM14.6106 25.2593V10.749H12.4413V25.2593H14.6106Z" fill="#2597D7"/>
<path d="M18.5726 19.3213H17.2734V16.6877H18.5726V19.3213Z" fill="#2597D7"/>
</svg>
