<svg width="17" height="16" viewBox="0 0 17 16" fill="none" xmlns="http://www.w3.org/2000/svg">
<path d="M0.749593 16C0.417638 15.8722 0.141497 15.6836 0.048961 15.3038C0.0167488 15.1701 0.000308466 15.0329 0 14.8951C0 11.9853 0 9.07542 0 6.16535C0 5.58269 0.248722 5.20794 0.720217 5.08675C0.827127 5.06412 0.936282 5.05492 1.04532 5.05936C5.53015 5.05936 10.015 5.06393 14.5003 5.05176C15.0878 5.05176 15.5735 5.45237 15.5515 6.13949C15.5363 6.61616 15.5515 7.09435 15.5515 7.57204C15.5565 7.59169 15.5639 7.61061 15.5735 7.62833H15.7767C16.3584 7.63137 16.7623 7.96657 16.778 8.56139C16.8064 9.66619 16.8051 10.7718 16.7741 11.8783C16.7594 12.4301 16.3594 12.7708 15.8232 12.7876C15.739 12.7876 15.6548 12.7876 15.5466 12.7876V13.0051C15.5466 13.6527 15.5495 14.2997 15.5466 14.9473C15.5432 15.4899 15.337 15.7845 14.8494 15.9666C14.8339 15.9754 14.8197 15.9865 14.8073 15.9995L0.749593 16ZM14.9209 8.91332V8.6831C14.9209 7.8474 14.9209 7.01136 14.9209 6.17498C14.9209 5.79314 14.8313 5.70186 14.4557 5.70186H1.10701C0.719238 5.70186 0.635025 5.78807 0.635025 6.18512C0.635025 9.08269 0.635025 11.9804 0.635025 14.8783C0.635025 14.9412 0.61593 15.0168 0.642858 15.0644C0.69142 15.1649 0.761402 15.2527 0.847516 15.321C0.915571 15.3662 1.0228 15.3565 1.11288 15.3565C5.113 15.3565 9.11312 15.3565 13.1132 15.3565C13.5749 15.3565 14.0361 15.3565 14.4974 15.3565C14.8141 15.3565 14.9199 15.2439 14.9199 14.9123C14.9199 14.27 14.9199 13.6288 14.9199 12.9889C14.9199 12.928 14.915 12.8667 14.9116 12.786H14.705C13.9705 12.786 13.2361 12.7896 12.5017 12.786C11.9112 12.782 11.5093 12.3804 11.5014 11.7769C11.4931 11.1547 11.4916 10.5325 11.5014 9.91028C11.5112 9.32356 11.9093 8.92498 12.4748 8.91231C12.56 8.91231 12.6447 8.91231 12.7299 8.91231L14.9209 8.91332ZM16.1601 9.58421C16.1244 9.57759 16.0885 9.57302 16.0524 9.57052C14.8695 9.57052 13.6866 9.56748 12.5042 9.57052C12.2363 9.57052 12.1374 9.6831 12.136 9.96758C12.1325 10.533 12.136 11.0979 12.136 11.6633C12.136 12.0558 12.2119 12.1324 12.5987 12.1324H15.2915C15.4874 12.1324 15.6798 12.1364 15.8732 12.1248C16.0489 12.1146 16.1576 12.0036 16.1591 11.8231C16.163 11.0812 16.1601 10.3408 16.1601 9.58421ZM16.1405 8.90622C16.2237 8.38644 16.0269 8.18462 15.5603 8.30784V8.90622H16.1405Z" fill="#2F3941"/>
<path d="M11.9003 4.65923H11.5238V4.51014C11.5238 3.56237 11.5238 2.6146 11.5238 1.66633C11.5238 1.57099 11.4993 1.53347 11.4048 1.50761C10.8912 1.36917 10.5691 1.02485 10.4383 0.488844C10.43 0.456897 10.4197 0.424949 10.4094 0.387424C10.1715 0.387424 9.93746 0.387424 9.70392 0.390974C9.68568 0.396293 9.66897 0.406139 9.65523 0.419659C9.64149 0.433179 9.63115 0.449964 9.62509 0.46856C9.51248 0.954361 9.23242 1.28837 8.78492 1.47059C8.76778 1.47718 8.75065 1.48479 8.73351 1.49037C8.52641 1.55882 8.52641 1.55882 8.52641 1.78651V4.6572H8.15234V4.53955C8.15234 3.23935 8.15234 1.93898 8.15234 0.638438C8.15234 0.23783 8.38001 0 8.76338 0C9.61204 0 10.4615 0 11.3118 0C11.6594 0 11.9037 0.242394 11.9047 0.603448C11.9081 1.93408 11.9047 3.26521 11.9047 4.59584C11.9062 4.6146 11.9028 4.63286 11.9003 4.65923ZM8.52787 1.13083C8.87648 1.08012 9.19717 0.748986 9.24417 0.388945C9.0684 0.388945 8.89312 0.383367 8.71882 0.388945C8.69367 0.387789 8.66855 0.392077 8.64508 0.401537C8.62162 0.410997 8.60031 0.425421 8.58253 0.443887C8.56474 0.462353 8.55087 0.484457 8.5418 0.508787C8.53273 0.533118 8.52865 0.55914 8.52983 0.585193C8.522 0.767748 8.52787 0.94929 8.52787 1.13083ZM11.5199 1.13083C11.5199 0.936613 11.5243 0.751521 11.5199 0.567444C11.516 0.457911 11.4474 0.393002 11.3309 0.388438C11.16 0.381339 10.9882 0.388438 10.8173 0.388438C10.8281 0.712982 11.1532 1.05882 11.5199 1.13286V1.13083Z" fill="#2F3941"/>
<path d="M6.28131 4.65868H5.90529C5.90529 4.61862 5.89844 4.57907 5.89844 4.53901C5.89844 3.63637 5.89844 2.73373 5.89844 1.8311C5.89844 1.39803 6.12709 1.16223 6.54227 1.16223C6.94865 1.16223 7.35503 1.16223 7.76973 1.16223V1.55016H7.39028C7.34995 1.8058 7.24353 2.04535 7.08231 2.24337C6.90471 2.4629 6.66169 2.61506 6.39147 2.67592C6.29796 2.69722 6.27886 2.73576 6.27935 2.82805C6.28327 3.39296 6.27935 3.95838 6.27935 4.52329L6.28131 4.65868ZM6.28131 2.29763C6.64558 2.22562 6.97215 1.8813 6.98439 1.56487C6.79981 1.56487 6.61474 1.55929 6.43064 1.5674C6.41025 1.56811 6.39021 1.57305 6.3717 1.58193C6.35319 1.59081 6.33659 1.60346 6.32288 1.61911C6.30918 1.63477 6.29866 1.65312 6.29194 1.67307C6.28522 1.69302 6.28244 1.71417 6.28376 1.73525C6.27935 1.91984 6.28278 2.10493 6.28278 2.29763H6.28131Z" fill="#2F3941"/>
<path d="M8.90039 3.109C8.90341 2.80092 9.02234 2.5062 9.23191 2.28754C9.44148 2.06887 9.72515 1.94351 10.0226 1.93811C10.6356 1.93811 11.1599 2.47817 11.1565 3.11103C11.1565 3.4209 11.0377 3.71807 10.8261 3.93718C10.6146 4.15629 10.3276 4.27939 10.0285 4.27939C9.72927 4.27939 9.44235 4.15629 9.23079 3.93718C9.01924 3.71807 8.90039 3.4209 8.90039 3.11103V3.109ZM10.0265 3.87827C10.1242 3.87827 10.221 3.85834 10.3113 3.8196C10.4016 3.78086 10.4836 3.72409 10.5527 3.65251C10.6218 3.58094 10.6767 3.49597 10.7141 3.40245C10.7515 3.30893 10.7707 3.2087 10.7707 3.10748C10.7707 3.00626 10.7515 2.90603 10.7141 2.81251C10.6767 2.719 10.6218 2.63402 10.5527 2.56245C10.4836 2.49088 10.4016 2.4341 10.3113 2.39536C10.221 2.35663 10.1242 2.33669 10.0265 2.33669C9.92876 2.33669 9.83199 2.35663 9.7417 2.39536C9.65141 2.4341 9.56937 2.49088 9.50026 2.56245C9.43115 2.63402 9.37634 2.719 9.33894 2.81251C9.30154 2.90603 9.28229 3.00626 9.28229 3.10748C9.28229 3.2087 9.30154 3.30893 9.33894 3.40245C9.37634 3.49597 9.43115 3.58094 9.50026 3.65251C9.56937 3.72409 9.65141 3.78086 9.7417 3.8196C9.83199 3.85834 9.92876 3.87827 10.0265 3.87827Z" fill="#2F3941"/>
<path d="M4.0274 4.65871H3.64844V4.5365C3.64844 4.0179 3.64844 3.49897 3.64844 2.9797C3.64844 2.57402 3.88198 2.32757 4.27367 2.32605C4.6869 2.32605 5.09964 2.32605 5.53099 2.32605C5.53099 2.44522 5.53393 2.55729 5.52805 2.66885C5.52805 2.68863 5.4879 2.71956 5.4644 2.71956C5.38419 2.72489 5.30373 2.72489 5.22351 2.71956C5.21126 2.71675 5.19856 2.71673 5.18629 2.71948C5.17402 2.72222 5.16247 2.72769 5.15243 2.73549C5.14238 2.74329 5.13409 2.75324 5.1281 2.76467C5.12212 2.7761 5.11859 2.78874 5.11776 2.80171C4.98752 3.35952 4.65116 3.71094 4.10965 3.84481C4.04355 3.86155 4.02495 3.89552 4.02593 3.96246C4.02984 4.19218 4.0274 4.41936 4.0274 4.65871ZM4.74125 2.73173C4.55177 2.73173 4.36229 2.72311 4.17428 2.73781C4.14423 2.74619 4.11671 2.7623 4.09429 2.78464C4.07186 2.80698 4.05525 2.83483 4.046 2.8656C4.0318 3.06236 4.04013 3.26063 4.04013 3.45891C4.3667 3.41834 4.69473 3.07859 4.74125 2.7297V2.73173Z" fill="#2F3941"/>
<path d="M7.77366 3.50355V3.87931C7.32714 3.93002 7.07646 4.18712 7.02358 4.65618H6.66861C6.59762 4.15466 7.1171 3.47312 7.77366 3.50355Z" fill="#2F3941"/>
<path d="M13.3772 10.2013C13.5012 10.2026 13.622 10.2419 13.7243 10.3144C13.8267 10.3868 13.906 10.489 13.9522 10.6081C13.9985 10.7272 14.0096 10.8578 13.9842 10.9834C13.9588 11.1091 13.898 11.2241 13.8095 11.314C13.7209 11.4038 13.6087 11.4644 13.4869 11.4882C13.3651 11.512 13.2392 11.4978 13.1252 11.4475C13.0111 11.3972 12.9141 11.3129 12.8463 11.2055C12.7784 11.098 12.7429 10.9722 12.7442 10.8438C12.7502 10.6731 12.8192 10.5113 12.937 10.3918C13.0548 10.2722 13.2123 10.204 13.3772 10.2013Z" fill="#2F3941"/>
</svg>
