<svg width="20" height="20" viewBox="0 0 20 20" fill="none" xmlns="http://www.w3.org/2000/svg">
<rect width="20" height="20" fill="#A8A8A8"/>
<g id="reason tab switch">
<g clip-path="url(#clip0_5411_31128)">
<g id="Property 1=Default">
<g id="Discount Amount" filter="url(#filter0_d_5411_31128)">
<rect x="-64" y="-145" width="1111" height="354" rx="12" fill="white" shape-rendering="crispEdges"/>
<g id="Frame 427318845">
<g id="Frame 427318843">
<g id="delete">
<g id="delete_2">
<mask id="mask0_5411_31128" style="mask-type:alpha" maskUnits="userSpaceOnUse" x="0" y="0" width="20" height="20">
<rect id="Bounding box" x="0.0195312" y="0.0188904" width="19.9622" height="19.9622" fill="#D9D9D9"/>
</mask>
<g mask="url(#mask0_5411_31128)">
<path id="delete_3" d="M5.84098 17.4857C5.38351 17.4857 4.99189 17.3229 4.66612 16.9971C4.34035 16.6713 4.17746 16.2797 4.17746 15.8222V5.00937H3.3457V3.34586H7.50449V2.5141H12.495V3.34586H16.6538V5.00937H15.8221V15.8222C15.8221 16.2797 15.6592 16.6713 15.3334 16.9971C15.0076 17.3229 14.616 17.4857 14.1586 17.4857H5.84098ZM14.1586 5.00937H5.84098V15.8222H14.1586V5.00937ZM7.50449 14.1587H9.16801V6.67289H7.50449V14.1587ZM10.8315 14.1587H12.495V6.67289H10.8315V14.1587Z" fill="#7A92CC"/>
</g>
</g>
</g>
</g>
</g>
</g>
</g>
</g>
<rect x="-79.5" y="-160.5" width="1142" height="755" rx="4.5" stroke="#9747FF" stroke-dasharray="10 5"/>
</g>
<defs>
<filter id="filter0_d_5411_31128" x="-78" y="-149" width="1139" height="382" filterUnits="userSpaceOnUse" color-interpolation-filters="sRGB">
<feFlood flood-opacity="0" result="BackgroundImageFix"/>
<feColorMatrix in="SourceAlpha" type="matrix" values="0 0 0 0 0 0 0 0 0 0 0 0 0 0 0 0 0 0 127 0" result="hardAlpha"/>
<feMorphology radius="2" operator="erode" in="SourceAlpha" result="effect1_dropShadow_5411_31128"/>
<feOffset dy="10"/>
<feGaussianBlur stdDeviation="8"/>
<feComposite in2="hardAlpha" operator="out"/>
<feColorMatrix type="matrix" values="0 0 0 0 0.196078 0 0 0 0 0.196078 0 0 0 0 0.278431 0 0 0 0.06 0"/>
<feBlend mode="normal" in2="BackgroundImageFix" result="effect1_dropShadow_5411_31128"/>
<feBlend mode="normal" in="SourceGraphic" in2="effect1_dropShadow_5411_31128" result="shape"/>
</filter>
<clipPath id="clip0_5411_31128">
<rect x="-80" y="-161" width="1143" height="756" rx="5" fill="white"/>
</clipPath>
</defs>
</svg>
