<svg width="20" height="25" viewBox="0 0 20 25" fill="none" xmlns="http://www.w3.org/2000/svg">
<path id="directions_bus" d="M5 21.875V22.5C5 23.0208 4.81771 23.4635 4.45312 23.8281C4.08854 24.1927 3.64583 24.375 3.125 24.375C2.60417 24.375 2.16146 24.1927 1.79688 23.8281C1.43229 23.4635 1.25 23.0208 1.25 22.5V20.5625C0.875 20.1458 0.572917 19.6823 0.34375 19.1719C0.114583 18.6615 0 18.1042 0 17.5V5.625C0 3.89583 0.802083 2.63021 2.40625 1.82812C4.01042 1.02604 6.54167 0.625 10 0.625C13.5833 0.625 16.1458 1.01042 17.6875 1.78125C19.2292 2.55208 20 3.83333 20 5.625V17.5C20 18.1042 19.8854 18.6615 19.6562 19.1719C19.4271 19.6823 19.125 20.1458 18.75 20.5625V22.5C18.75 23.0208 18.5677 23.4635 18.2031 23.8281C17.8385 24.1927 17.3958 24.375 16.875 24.375C16.3542 24.375 15.9115 24.1927 15.5469 23.8281C15.1823 23.4635 15 23.0208 15 22.5V21.875H5ZM2.5 10.625H17.5V6.875H2.5V10.625ZM5.625 18.125C6.14583 18.125 6.58854 17.9427 6.95312 17.5781C7.31771 17.2135 7.5 16.7708 7.5 16.25C7.5 15.7292 7.31771 15.2865 6.95312 14.9219C6.58854 14.5573 6.14583 14.375 5.625 14.375C5.10417 14.375 4.66146 14.5573 4.29688 14.9219C3.93229 15.2865 3.75 15.7292 3.75 16.25C3.75 16.7708 3.93229 17.2135 4.29688 17.5781C4.66146 17.9427 5.10417 18.125 5.625 18.125ZM14.375 18.125C14.8958 18.125 15.3385 17.9427 15.7031 17.5781C16.0677 17.2135 16.25 16.7708 16.25 16.25C16.25 15.7292 16.0677 15.2865 15.7031 14.9219C15.3385 14.5573 14.8958 14.375 14.375 14.375C13.8542 14.375 13.4115 14.5573 13.0469 14.9219C12.6823 15.2865 12.5 15.7292 12.5 16.25C12.5 16.7708 12.6823 17.2135 13.0469 17.5781C13.4115 17.9427 13.8542 18.125 14.375 18.125ZM3.0625 4.375H17.0625C16.75 4.02083 16.0781 3.72396 15.0469 3.48438C14.0156 3.24479 12.3542 3.125 10.0625 3.125C7.83333 3.125 6.20313 3.25521 5.17188 3.51562C4.14063 3.77604 3.4375 4.0625 3.0625 4.375ZM5 19.375H15C15.6875 19.375 16.276 19.1302 16.7656 18.6406C17.2552 18.151 17.5 17.5625 17.5 16.875V13.125H2.5V16.875C2.5 17.5625 2.74479 18.151 3.23438 18.6406C3.72396 19.1302 4.3125 19.375 5 19.375Z" fill="#F0C02F"/>
</svg>
