<svg width="25" height="25" viewBox="0 0 25 25" fill="none" xmlns="http://www.w3.org/2000/svg">
<g id="directions_bus">
<mask id="mask0_9562_11859" style="mask-type:alpha" maskUnits="userSpaceOnUse" x="0" y="0" width="25" height="25">
<rect id="Bounding box" x="0.5" y="0.5" width="24" height="24" fill="#D9D9D9"/>
</mask>
<g mask="url(#mask0_9562_11859)">
<path id="directions_bus_2" d="M6.5 21.5C6.21667 21.5 5.97917 21.4042 5.7875 21.2125C5.59583 21.0208 5.5 20.7833 5.5 20.5V18.45C5.2 18.1167 4.95833 17.7458 4.775 17.3375C4.59167 16.9292 4.5 16.4833 4.5 16V6.5C4.5 5.11667 5.14167 4.10417 6.425 3.4625C7.70833 2.82083 9.73333 2.5 12.5 2.5C15.3667 2.5 17.4167 2.80833 18.65 3.425C19.8833 4.04167 20.5 5.06667 20.5 6.5V16C20.5 16.4833 20.4083 16.9292 20.225 17.3375C20.0417 17.7458 19.8 18.1167 19.5 18.45V20.5C19.5 20.7833 19.4042 21.0208 19.2125 21.2125C19.0208 21.4042 18.7833 21.5 18.5 21.5H17.5C17.2167 21.5 16.9792 21.4042 16.7875 21.2125C16.5958 21.0208 16.5 20.7833 16.5 20.5V19.5H8.5V20.5C8.5 20.7833 8.40417 21.0208 8.2125 21.2125C8.02083 21.4042 7.78333 21.5 7.5 21.5H6.5ZM6.5 10.5H18.5V7.5H6.5V10.5ZM9 16.5C9.41667 16.5 9.77083 16.3542 10.0625 16.0625C10.3542 15.7708 10.5 15.4167 10.5 15C10.5 14.5833 10.3542 14.2292 10.0625 13.9375C9.77083 13.6458 9.41667 13.5 9 13.5C8.58333 13.5 8.22917 13.6458 7.9375 13.9375C7.64583 14.2292 7.5 14.5833 7.5 15C7.5 15.4167 7.64583 15.7708 7.9375 16.0625C8.22917 16.3542 8.58333 16.5 9 16.5ZM16 16.5C16.4167 16.5 16.7708 16.3542 17.0625 16.0625C17.3542 15.7708 17.5 15.4167 17.5 15C17.5 14.5833 17.3542 14.2292 17.0625 13.9375C16.7708 13.6458 16.4167 13.5 16 13.5C15.5833 13.5 15.2292 13.6458 14.9375 13.9375C14.6458 14.2292 14.5 14.5833 14.5 15C14.5 15.4167 14.6458 15.7708 14.9375 16.0625C15.2292 16.3542 15.5833 16.5 16 16.5ZM6.95 5.5H18.15C17.9 5.21667 17.3625 4.97917 16.5375 4.7875C15.7125 4.59583 14.3833 4.5 12.55 4.5C10.7667 4.5 9.4625 4.60417 8.6375 4.8125C7.8125 5.02083 7.25 5.25 6.95 5.5ZM8.5 17.5H16.5C17.05 17.5 17.5208 17.3042 17.9125 16.9125C18.3042 16.5208 18.5 16.05 18.5 15.5V12.5H6.5V15.5C6.5 16.05 6.69583 16.5208 7.0875 16.9125C7.47917 17.3042 7.95 17.5 8.5 17.5Z" fill="#7A92CC"/>
</g>
</g>
</svg>
