<svg width="36" height="36" viewBox="0 0 36 36" fill="none" xmlns="http://www.w3.org/2000/svg">
<circle cx="18" cy="18" r="18" fill="#FFD6AF"/>
<path d="M18.4075 18.1179H14.2552C14.1362 18.1187 14.0203 18.0796 13.9261 18.0069C13.8318 17.9341 13.7647 17.8319 13.7353 17.7165C13.7053 17.5988 13.7171 17.4744 13.7687 17.3645C13.8203 17.2546 13.9085 17.166 14.0183 17.114C14.1132 17.074 14.2154 17.0539 14.3184 17.0551C15.6247 17.0508 16.931 17.0551 18.2373 17.0551H18.3996C18.3352 16.8532 18.2254 16.6687 18.0786 16.5158C17.9362 16.3557 17.7615 16.2275 17.5661 16.1396C17.3707 16.0518 17.1589 16.0062 16.9446 16.0059C16.0577 16.0009 15.1701 16.0059 14.2825 16.0059C13.8775 16.0059 13.614 15.6318 13.759 15.2727C13.7972 15.1756 13.8635 15.0922 13.9496 15.0332C14.0356 14.9742 14.1373 14.9423 14.2416 14.9417C16.374 14.9417 18.5056 14.9417 20.6365 14.9417C20.7751 14.9428 20.9075 14.9989 21.0047 15.0976C21.1019 15.1963 21.156 15.3295 21.155 15.468C21.1558 15.5387 21.1425 15.6089 21.1158 15.6743C21.0891 15.7398 21.0496 15.7993 20.9997 15.8493C20.9497 15.8993 20.8903 15.9389 20.8248 15.9657C20.7594 15.9924 20.6893 16.0059 20.6186 16.0052C20.1461 16.0102 19.6728 16.0052 19.2003 16.0052H19.0861L19.5435 17.0271L19.5098 17.0573H19.6678C19.9744 17.0573 20.2811 17.0573 20.5884 17.0573C20.9152 17.0573 21.1536 17.2842 21.155 17.5894C21.1565 17.8946 20.9195 18.1215 20.592 18.1222H19.5299C19.1026 19.57 18.1339 20.2716 16.6351 20.2565L16.6014 20.3032C16.644 20.3193 16.6841 20.3413 16.7206 20.3686C17.7777 21.4218 18.8338 22.4767 19.889 23.5334C20.0462 23.6899 20.1346 23.8637 20.0771 24.0906C20.0556 24.1788 20.0118 24.2601 19.9498 24.3265C19.8879 24.3929 19.8099 24.4423 19.7234 24.4699C19.6369 24.4975 19.5447 24.5024 19.4558 24.4841C19.3668 24.4659 19.284 24.4251 19.2154 24.3657C19.1895 24.3441 19.1665 24.3204 19.1435 24.2939C17.7552 22.9055 16.368 21.519 14.982 20.1344C14.8427 19.9951 14.7536 19.8379 14.7874 19.6361C14.8362 19.3488 15.0452 19.1822 15.3619 19.18C15.8516 19.18 16.3407 19.18 16.8305 19.18C17.0796 19.188 17.3273 19.1404 17.5558 19.0407C17.7525 18.9521 17.9293 18.8247 18.0757 18.6661C18.222 18.5076 18.3349 18.3211 18.4075 18.1179Z" fill="#FF8730"/>
<path d="M17.7339 8.69603C18.0118 8.69603 18.2897 8.68813 18.5669 8.69603C18.7886 8.69917 19 8.79025 19.1545 8.94923C19.3091 9.10822 19.3941 9.32208 19.391 9.54378C19.3879 9.76547 19.2968 9.97684 19.1378 10.1314C18.9788 10.2859 18.7649 10.371 18.5432 10.3678C17.3461 10.3413 16.1562 10.3915 15.0187 10.7987C11.7225 11.9786 9.7002 14.2824 9.17955 17.7509C8.49733 22.3096 11.4539 26.4403 15.9623 27.3997C20.4951 28.362 25.1127 25.3459 26.0678 20.813C26.3018 19.6891 26.3135 18.5303 26.1023 17.4019C26.0802 17.2897 26.0809 17.1743 26.1042 17.0624C26.1276 16.9505 26.173 16.8443 26.238 16.7503C26.303 16.6563 26.3862 16.5762 26.4827 16.5148C26.5791 16.4534 26.6869 16.412 26.7996 16.3929C27.3288 16.3125 27.7403 16.6364 27.8315 17.1642C28.1971 19.2791 27.9831 21.3294 27.0682 23.2683C25.5263 26.5408 22.9641 28.5688 19.3949 29.1764C13.9206 30.1099 8.86286 26.6866 7.59321 21.2805C6.30057 15.7581 9.94293 10.0562 15.4962 8.92295C15.7935 8.86263 16.093 8.80015 16.3946 8.76927C16.8391 8.72403 17.2872 8.70608 17.7332 8.67664L17.7339 8.69603Z" fill="#FF8730"/>
<path d="M24.9763 9.8203C24.5576 9.84571 24.1381 9.87422 23.7188 9.89611C23.2147 9.92364 22.8178 9.58552 22.7862 9.1077C22.7493 8.60783 23.1011 8.21816 23.619 8.18469C24.7442 8.11132 25.8704 8.04129 26.9974 7.97459C27.513 7.94483 27.9014 8.28399 27.9344 8.79478C28.0067 9.93062 28.076 11.0663 28.1422 12.2018C28.1528 12.3156 28.1401 12.4303 28.105 12.5389C28.0699 12.6476 28.013 12.748 27.9379 12.834C27.8627 12.92 27.7708 12.9898 27.6678 13.0391C27.5648 13.0885 27.4528 13.1163 27.3387 13.121C26.8536 13.15 26.4679 12.8045 26.4292 12.3012C26.3987 11.8818 26.3712 11.4623 26.3416 11.0428C26.3416 11.0428 26.3298 11.0324 26.3078 11.0129C26.2446 11.0787 26.178 11.1454 26.1156 11.2158C25.3143 12.1206 24.5211 13.0336 23.7145 13.9346C23.2562 14.4458 22.4818 14.3183 22.2424 13.7014C22.1019 13.3391 22.2023 13.0242 22.4567 12.7402C23.2452 11.8595 24.0278 10.9726 24.8136 10.0896C24.8774 10.0176 24.9546 9.95745 25.0244 9.89267L24.9763 9.8203Z" fill="#FF8730"/>
</svg>
