<svg width="22" height="21" viewBox="0 0 22 21" fill="none" xmlns="http://www.w3.org/2000/svg">
<g id="Layer 1">
<path id="Vector" d="M1.89246 20.5242C1.49724 20.3721 1.16847 20.1475 1.05829 19.6953C1.01994 19.5361 1.00037 19.3727 1 19.2086C1 15.7443 1 12.2798 1 8.81509C1 8.12138 1.29613 7.67521 1.85749 7.53092C1.98477 7.50397 2.11473 7.49303 2.24455 7.49831C7.58417 7.49831 12.9238 7.50375 18.264 7.48926C18.9635 7.48926 19.5418 7.96622 19.5155 8.7843C19.4975 9.35183 19.5155 9.92116 19.5155 10.4899C19.5215 10.5133 19.5303 10.5358 19.5418 10.5569H19.7837C20.4762 10.5605 20.9571 10.9596 20.9758 11.6678C21.0096 12.9832 21.008 14.2996 20.9711 15.6169C20.9536 16.2738 20.4774 16.6795 19.839 16.6995C19.7388 16.6995 19.6385 16.6995 19.5097 16.6995V16.9585C19.5097 17.7295 19.5132 18.4998 19.5097 19.2708C19.5056 19.9168 19.2602 20.2676 18.6796 20.4844C18.6611 20.4948 18.6442 20.5081 18.6295 20.5236L1.89246 20.5242ZM18.7647 12.0868V11.8127C18.7647 10.8177 18.7647 9.82235 18.7647 8.82656C18.7647 8.37194 18.658 8.26326 18.2109 8.26326H2.318C1.85632 8.26326 1.75606 8.3659 1.75606 8.83864C1.75606 12.2885 1.75606 15.7385 1.75606 19.1887C1.75606 19.2636 1.73332 19.3535 1.76538 19.4103C1.8232 19.5299 1.90652 19.6344 2.00905 19.7158C2.09007 19.7695 2.21774 19.7581 2.32499 19.7581C7.08751 19.7581 11.85 19.7581 16.6125 19.7581C17.1622 19.7581 17.7114 19.7581 18.2605 19.7581C18.6376 19.7581 18.7635 19.624 18.7635 19.2292C18.7635 18.4644 18.7635 17.7011 18.7635 16.9391C18.7635 16.8667 18.7577 16.7936 18.7536 16.6976H18.5076C17.6333 16.6976 16.7589 16.7019 15.8845 16.6976C15.1815 16.6928 14.7029 16.2146 14.6935 15.4962C14.6836 14.7554 14.6819 14.0146 14.6935 13.2738C14.7052 12.5752 15.1791 12.1007 15.8524 12.0856C15.9538 12.0856 16.0547 12.0856 16.1561 12.0856L18.7647 12.0868ZM20.2401 12.8856C20.1977 12.8777 20.1549 12.8722 20.1119 12.8693C18.7035 12.8693 17.2952 12.8656 15.8874 12.8693C15.5685 12.8693 15.4508 13.0033 15.449 13.342C15.4449 14.0152 15.449 14.6878 15.449 15.3609C15.449 15.8282 15.5394 15.9194 15.9999 15.9194H19.206C19.4392 15.9194 19.6683 15.9242 19.8985 15.9104C20.1078 15.8983 20.2372 15.7661 20.2389 15.5511C20.2436 14.6678 20.2401 13.7864 20.2401 12.8856ZM20.2168 12.0784C20.3159 11.4595 20.0815 11.2192 19.526 11.3659V12.0784H20.2168Z" fill="#2760EA" stroke="#2760EA" stroke-width="0.7"/>
<g id="Group 9">
<path id="Vector 15" d="M4.80981 8.14242V5.81182C4.80981 5.42522 5.12322 5.11182 5.50981 5.11182H8.2445" stroke="#2760EA"/>
<path id="Vector 16" d="M8.24438 8.14242V3.99346C8.24438 3.60686 8.55779 3.29346 8.94438 3.29346H11.6791" stroke="#2760EA"/>
<path id="Vector 17" d="M11.6792 8.14243V2.1751C11.6792 1.7885 11.9926 1.4751 12.3792 1.4751H14.4139C14.8005 1.4751 15.1139 1.7885 15.1139 2.1751V8.14243" stroke="#2760EA"/>
</g>
</g>
</svg>
