<svg width="36" height="36" viewBox="0 0 36 36" fill="none" xmlns="http://www.w3.org/2000/svg">
<circle cx="18" cy="18" r="18" fill="#E0F0FF"/>
<g clip-path="url(#clip0_247_26226)">
<path d="M8.93699 28C8.52205 27.8403 8.17687 27.6045 8.0612 27.1297C8.02094 26.9626 8.00039 26.7911 8 26.6188C8 22.9817 8 19.3443 8 15.7067C8 14.9784 8.3109 14.5099 8.90027 14.3584C9.03391 14.3301 9.17035 14.3187 9.30665 14.3242C14.9127 14.3242 20.5187 14.3299 26.1254 14.3147C26.8598 14.3147 27.4669 14.8155 27.4394 15.6744C27.4204 16.2702 27.4394 16.8679 27.4394 17.4651C27.4456 17.4896 27.4549 17.5133 27.4669 17.5354H27.7209C28.448 17.5392 28.9529 17.9582 28.9725 18.7017C29.008 20.0827 29.0063 21.4648 28.9676 22.8479C28.9492 23.5376 28.4492 23.9635 27.779 23.9844C27.6738 23.9844 27.5685 23.9844 27.4332 23.9844V24.2564C27.4332 25.0658 27.4369 25.8747 27.4332 26.6841C27.429 27.3624 27.1713 27.7306 26.5617 27.9582C26.5423 27.9692 26.5246 27.9831 26.5091 27.9994L8.93699 28ZM26.6511 19.1416V18.8539C26.6511 17.8092 26.6511 16.7642 26.6511 15.7187C26.6511 15.2414 26.5391 15.1273 26.0697 15.1273H9.38376C8.89905 15.1273 8.79378 15.2351 8.79378 15.7314C8.79378 19.3534 8.79378 22.9755 8.79378 26.5979C8.79378 26.6765 8.76991 26.771 8.80357 26.8305C8.86428 26.9562 8.95175 27.0658 9.05939 27.1513C9.14446 27.2077 9.2785 27.1957 9.39111 27.1957C14.3913 27.1957 19.3914 27.1957 24.3915 27.1957C24.9687 27.1957 25.5452 27.1957 26.1217 27.1957C26.5177 27.1957 26.6499 27.0549 26.6499 26.6404C26.6499 25.8375 26.6499 25.036 26.6499 24.2361C26.6499 24.16 26.6438 24.0833 26.6395 23.9825H26.3812C25.4632 23.9825 24.5452 23.987 23.6271 23.9825C22.8891 23.9775 22.3866 23.4754 22.3768 22.7211C22.3664 21.9434 22.3646 21.1656 22.3768 20.3878C22.389 19.6545 22.8866 19.1562 23.5935 19.1404C23.7 19.1404 23.8058 19.1404 23.9123 19.1404L26.6511 19.1416ZM28.2001 19.9803C28.1556 19.972 28.1106 19.9663 28.0655 19.9632C26.5868 19.9632 25.1082 19.9593 23.6302 19.9632C23.2954 19.9632 23.1718 20.1039 23.17 20.4595C23.1657 21.1662 23.17 21.8724 23.17 22.5792C23.17 23.0698 23.2648 23.1655 23.7483 23.1655H27.1144C27.3592 23.1655 27.5997 23.1706 27.8415 23.156C28.0612 23.1433 28.197 23.0045 28.1989 22.7788C28.2038 21.8515 28.2001 20.926 28.2001 19.9803ZM28.1756 19.1328C28.2797 18.4831 28.0336 18.2308 27.4504 18.3848V19.1328H28.1756Z" fill="#46BFF3"/>
<path d="M22.8764 13.824H22.4057V13.6377C22.4057 12.453 22.4057 11.2683 22.4057 10.0829C22.4057 9.96374 22.3751 9.91684 22.257 9.88451C21.615 9.71146 21.2123 9.28106 21.0489 8.61105C21.0385 8.57112 21.0256 8.53119 21.0128 8.48428C20.7153 8.48428 20.4228 8.48428 20.1309 8.48872C20.1081 8.49537 20.0872 8.50767 20.07 8.52457C20.0528 8.54147 20.0399 8.56245 20.0323 8.5857C19.8916 9.19295 19.5415 9.61046 18.9821 9.83824C18.9607 9.84648 18.9393 9.85598 18.9179 9.86296C18.659 9.94853 18.659 9.94853 18.659 10.2331V13.8215H18.1914V13.6744C18.1914 12.0492 18.1914 10.4237 18.1914 8.79805C18.1914 8.29729 18.476 8 18.9552 8C20.016 8 21.0779 8 22.1407 8C22.5753 8 22.8806 8.30299 22.8819 8.75431C22.8862 10.4176 22.8819 12.0815 22.8819 13.7448C22.8837 13.7683 22.8794 13.7911 22.8764 13.824ZM18.6608 9.41354C19.0966 9.35015 19.4974 8.93623 19.5562 8.48618C19.3365 8.48618 19.1174 8.47921 18.8995 8.48618C18.8681 8.48474 18.8367 8.4901 18.8073 8.50192C18.778 8.51375 18.7514 8.53178 18.7291 8.55486C18.7069 8.57794 18.6896 8.60557 18.6782 8.63598C18.6669 8.6664 18.6618 8.69892 18.6633 8.73149C18.6535 8.95969 18.6608 9.18661 18.6608 9.41354ZM22.4008 9.41354C22.4008 9.17077 22.4063 8.9394 22.4008 8.70931C22.3959 8.57239 22.3103 8.49125 22.1646 8.48555C21.951 8.47667 21.7362 8.48555 21.5226 8.48555C21.5361 8.89123 21.9424 9.32353 22.4008 9.41608V9.41354Z" fill="#46BFF3"/>
<path d="M15.8516 13.8234H15.3816C15.3816 13.7734 15.373 13.7239 15.373 13.6739C15.373 12.5456 15.373 11.4173 15.373 10.289C15.373 9.74763 15.6589 9.45288 16.1778 9.45288C16.6858 9.45288 17.1938 9.45288 17.7122 9.45288V9.93779H17.2379C17.1874 10.2573 17.0544 10.5568 16.8529 10.8043C16.6309 11.0787 16.3271 11.2689 15.9893 11.345C15.8724 11.3716 15.8486 11.4198 15.8492 11.5352C15.8541 12.2413 15.8492 12.9481 15.8492 13.6542L15.8516 13.8234ZM15.8516 10.8721C16.307 10.7821 16.7152 10.3517 16.7305 9.95618C16.4998 9.95618 16.2684 9.9492 16.0383 9.95935C16.0128 9.96023 15.9878 9.9664 15.9646 9.9775C15.9415 9.98861 15.9207 10.0044 15.9036 10.024C15.8865 10.0436 15.8733 10.0665 15.8649 10.0914C15.8565 10.1164 15.853 10.1428 15.8547 10.1692C15.8492 10.3999 15.8535 10.6313 15.8535 10.8721H15.8516Z" fill="#46BFF3"/>
<path d="M19.127 11.8862C19.1307 11.5011 19.2794 11.1327 19.5414 10.8594C19.8033 10.5861 20.1579 10.4294 20.5297 10.4226C21.2959 10.4226 21.9514 11.0977 21.9471 11.8888C21.9471 12.2761 21.7985 12.6476 21.5341 12.9214C21.2697 13.1953 20.911 13.3492 20.537 13.3492C20.1631 13.3492 19.8044 13.1953 19.54 12.9214C19.2755 12.6476 19.127 12.2761 19.127 11.8888V11.8862ZM20.5346 12.8478C20.6567 12.8478 20.7777 12.8229 20.8906 12.7745C21.0034 12.726 21.106 12.6551 21.1924 12.5656C21.2788 12.4761 21.3473 12.3699 21.394 12.253C21.4408 12.1361 21.4648 12.0108 21.4648 11.8843C21.4648 11.7578 21.4408 11.6325 21.394 11.5156C21.3473 11.3987 21.2788 11.2925 21.1924 11.203C21.106 11.1136 21.0034 11.0426 20.8906 10.9942C20.7777 10.9458 20.6567 10.9208 20.5346 10.9208C20.4124 10.9208 20.2915 10.9458 20.1786 10.9942C20.0657 11.0426 19.9632 11.1136 19.8768 11.203C19.7904 11.2925 19.7219 11.3987 19.6751 11.5156C19.6284 11.6325 19.6043 11.7578 19.6043 11.8843C19.6043 12.0108 19.6284 12.1361 19.6751 12.253C19.7219 12.3699 19.7904 12.4761 19.8768 12.5656C19.9632 12.6551 20.0657 12.726 20.1786 12.7745C20.2915 12.8229 20.4124 12.8478 20.5346 12.8478Z" fill="#46BFF3"/>
<path d="M13.0342 13.8233H12.5605V13.6705C12.5605 13.0223 12.5605 12.3736 12.5605 11.7245C12.5605 11.2174 12.8525 10.9094 13.3421 10.9075C13.8586 10.9075 14.3746 10.9075 14.9137 10.9075C14.9137 11.0564 14.9174 11.1965 14.9101 11.336C14.9101 11.3607 14.8599 11.3994 14.8305 11.3994C14.7302 11.406 14.6297 11.406 14.5294 11.3994C14.5141 11.3959 14.4982 11.3958 14.4829 11.3993C14.4675 11.4027 14.4531 11.4095 14.4405 11.4193C14.428 11.429 14.4176 11.4415 14.4101 11.4558C14.4027 11.47 14.3982 11.4858 14.3972 11.502C14.2344 12.1993 13.8139 12.6386 13.1371 12.8059C13.0544 12.8268 13.0312 12.8693 13.0324 12.953C13.0373 13.2401 13.0342 13.5241 13.0342 13.8233ZM13.9266 11.4146C13.6897 11.4146 13.4529 11.4038 13.2178 11.4222C13.1803 11.4326 13.1459 11.4528 13.1179 11.4807C13.0898 11.5086 13.0691 11.5434 13.0575 11.5819C13.0398 11.8279 13.0502 12.0757 13.0502 12.3235C13.4584 12.2728 13.8684 11.8481 13.9266 11.412V11.4146Z" fill="#46BFF3"/>
<path d="M17.7176 12.3794V12.8491C17.1594 12.9125 16.8461 13.2339 16.78 13.8202H16.3363C16.2475 13.1933 16.8969 12.3414 17.7176 12.3794Z" fill="#46BFF3"/>
<path d="M24.723 20.7517C24.8779 20.7533 25.0289 20.8025 25.1569 20.893C25.2848 20.9835 25.3839 21.1113 25.4418 21.2602C25.4996 21.4091 25.5135 21.5723 25.4817 21.7294C25.45 21.8865 25.374 22.0302 25.2633 22.1425C25.1526 22.2549 25.0123 22.3307 24.86 22.3604C24.7078 22.3901 24.5504 22.3723 24.4079 22.3094C24.2654 22.2465 24.1441 22.1413 24.0593 22.0069C23.9745 21.8726 23.9301 21.7153 23.9317 21.5548C23.9392 21.3415 24.0254 21.1392 24.1727 20.9898C24.3199 20.8404 24.5169 20.7551 24.723 20.7517Z" fill="#46BFF3"/>
</g>
<defs>
<clipPath id="clip0_247_26226">
<rect width="21" height="20" fill="white" transform="translate(8 8)"/>
</clipPath>
</defs>
</svg>
