<svg width="25" height="24" viewBox="0 0 25 24" fill="none" xmlns="http://www.w3.org/2000/svg">
<g id="dashboard">
<mask id="mask0_5449_80" style="mask-type:alpha" maskUnits="userSpaceOnUse" x="0" y="0" width="25" height="24">
<rect id="Bounding box" x="0.5" width="24" height="24" fill="#D9D9D9"/>
</mask>
<g mask="url(#mask0_5449_80)">
<g id="account_balance_wallet">
<mask id="mask1_5449_80" style="mask-type:alpha" maskUnits="userSpaceOnUse" x="0" y="0" width="25" height="24">
<rect id="Bounding box_2" x="0.5" width="24" height="24" fill="#D9D9D9"/>
</mask>
<g mask="url(#mask1_5449_80)">
<path id="account_balance_wallet_2" d="M16.5 13.5C16.9333 13.5 17.2917 13.3583 17.575 13.075C17.8583 12.7917 18 12.4333 18 12C18 11.5667 17.8583 11.2083 17.575 10.925C17.2917 10.6417 16.9333 10.5 16.5 10.5C16.0667 10.5 15.7083 10.6417 15.425 10.925C15.1417 11.2083 15 11.5667 15 12C15 12.4333 15.1417 12.7917 15.425 13.075C15.7083 13.3583 16.0667 13.5 16.5 13.5ZM5.5 21C4.95 21 4.47917 20.8042 4.0875 20.4125C3.69583 20.0208 3.5 19.55 3.5 19V5C3.5 4.45 3.69583 3.97917 4.0875 3.5875C4.47917 3.19583 4.95 3 5.5 3H19.5C20.05 3 20.5208 3.19583 20.9125 3.5875C21.3042 3.97917 21.5 4.45 21.5 5V7.5H19.5V5H5.5V19H19.5V16.5H21.5V19C21.5 19.55 21.3042 20.0208 20.9125 20.4125C20.5208 20.8042 20.05 21 19.5 21H5.5ZM13.5 17C12.95 17 12.4792 16.8042 12.0875 16.4125C11.6958 16.0208 11.5 15.55 11.5 15V9C11.5 8.45 11.6958 7.97917 12.0875 7.5875C12.4792 7.19583 12.95 7 13.5 7H20.5C21.05 7 21.5208 7.19583 21.9125 7.5875C22.3042 7.97917 22.5 8.45 22.5 9V15C22.5 15.55 22.3042 16.0208 21.9125 16.4125C21.5208 16.8042 21.05 17 20.5 17H13.5ZM20.5 15V9H13.5V15H20.5Z" fill="#999999"/>
</g>
</g>
</g>
</g>
</svg>
