<svg width="21" height="21" viewBox="0 0 21 21" fill="none" xmlns="http://www.w3.org/2000/svg">
<g id="fi-rr-money-bills-simple" clip-path="url(#clip0_9562_11827)">
<path id="Vector" d="M17.1667 3H7.16667C5.325 3 3.83333 4.49167 3.83333 6.33333V11.3333C3.83333 13.175 5.325 14.6667 7.16667 14.6667H17.1667C19.0083 14.6667 20.5 13.175 20.5 11.3333V6.33333C20.5 4.49167 19.0083 3 17.1667 3ZM18.8333 11.3333C18.8333 12.25 18.0833 13 17.1667 13H7.16667C6.25 13 5.5 12.25 5.5 11.3333V6.33333C5.5 5.41667 6.25 4.66667 7.16667 4.66667H17.1667C18.0833 4.66667 18.8333 5.41667 18.8333 6.33333V11.3333ZM16.3333 17.1667C16.3333 17.625 15.9583 18 15.5 18H4.66667C2.36667 18 0.5 16.1333 0.5 13.8333V8C0.5 7.54167 0.875 7.16667 1.33333 7.16667C1.79167 7.16667 2.16667 7.54167 2.16667 8V13.8333C2.16667 15.2083 3.29167 16.3333 4.66667 16.3333H15.5C15.9583 16.3333 16.3333 16.7083 16.3333 17.1667ZM12.1667 6.33333C10.7917 6.33333 9.66667 7.45833 9.66667 8.83333C9.66667 10.2083 10.7917 11.3333 12.1667 11.3333C13.5417 11.3333 14.6667 10.2083 14.6667 8.83333C14.6667 7.45833 13.5417 6.33333 12.1667 6.33333ZM12.1667 9.66667C11.7083 9.66667 11.3333 9.29167 11.3333 8.83333C11.3333 8.375 11.7083 8 12.1667 8C12.625 8 13 8.375 13 8.83333C13 9.29167 12.625 9.66667 12.1667 9.66667Z" fill="#7A92CC"/>
</g>
<defs>
<clipPath id="clip0_9562_11827">
<rect width="20" height="20" fill="white" transform="translate(0.5 0.5)"/>
</clipPath>
</defs>
</svg>
