<svg width="21" height="21" viewBox="0 0 21 21" fill="none" xmlns="http://www.w3.org/2000/svg">
<g id="fi-rr-venus-mars" clip-path="url(#clip0_7426_27269)">
<path id="Vector" d="M18.8331 0.5H15.4998C15.2788 0.5 15.0668 0.587797 14.9105 0.744078C14.7542 0.900358 14.6665 1.11232 14.6665 1.33333C14.6665 1.55435 14.7542 1.76631 14.9105 1.92259C15.0668 2.07887 15.2788 2.16667 15.4998 2.16667H17.6548L15.6548 4.16667C14.7427 3.4779 13.647 3.07478 12.5061 3.00819C11.3651 2.9416 10.23 3.21452 9.24395 3.7925C8.50081 3.36308 7.67194 3.10322 6.81664 3.03151C5.96135 2.9598 5.10078 3.07801 4.29651 3.37768C3.49223 3.67736 2.76413 4.15109 2.1643 4.76498C1.56446 5.37887 1.10772 6.11775 0.82676 6.92875C0.545795 7.73975 0.44755 8.60283 0.539053 9.45623C0.630556 10.3096 0.909545 11.1323 1.35606 11.8653C1.80258 12.5983 2.40558 13.2235 3.12193 13.6963C3.83827 14.169 4.65026 14.4776 5.49978 14.6V16.3333H3.83312C3.6121 16.3333 3.40014 16.4211 3.24386 16.5774C3.08758 16.7337 2.99978 16.9457 2.99978 17.1667C2.99978 17.3877 3.08758 17.5996 3.24386 17.7559C3.40014 17.9122 3.6121 18 3.83312 18H5.49978V19.6667C5.49978 19.8877 5.58758 20.0996 5.74386 20.2559C5.90014 20.4122 6.1121 20.5 6.33312 20.5C6.55413 20.5 6.76609 20.4122 6.92237 20.2559C7.07865 20.0996 7.16645 19.8877 7.16645 19.6667V18H8.83312C9.05413 18 9.26609 17.9122 9.42237 17.7559C9.57865 17.5996 9.66645 17.3877 9.66645 17.1667C9.66645 16.9457 9.57865 16.7337 9.42237 16.5774C9.26609 16.4211 9.05413 16.3333 8.83312 16.3333H7.16645V14.6058C7.899 14.4967 8.60373 14.2477 9.24228 13.8725C10.4033 14.5516 11.7636 14.8077 13.0921 14.5973C14.4205 14.3869 15.6352 13.7231 16.5296 12.7185C17.4239 11.7139 17.9429 10.4307 17.9982 9.08681C18.0536 7.74294 17.6419 6.42136 16.8331 5.34667L18.8331 3.34667V5.5C18.8331 5.72101 18.9209 5.93297 19.0772 6.08926C19.2335 6.24554 19.4454 6.33333 19.6665 6.33333C19.8875 6.33333 20.0994 6.24554 20.2557 6.08926C20.412 5.93297 20.4998 5.72101 20.4998 5.5V2.16667C20.4998 1.72464 20.3242 1.30072 20.0116 0.988155C19.6991 0.675595 19.2751 0.5 18.8331 0.5ZM2.16645 8.83333C2.1625 8.15654 2.32444 7.48909 2.6381 6.88935C2.95176 6.28962 3.40758 5.77587 3.96571 5.39304C4.52384 5.01021 5.16726 4.76997 5.83971 4.69331C6.51216 4.61666 7.19315 4.70594 7.82312 4.95333C6.8639 6.01802 6.33307 7.40028 6.33307 8.83333C6.33307 10.2664 6.8639 11.6486 7.82312 12.7133C7.19315 12.9607 6.51216 13.05 5.83971 12.9734C5.16726 12.8967 4.52384 12.6565 3.96571 12.2736C3.40758 11.8908 2.95176 11.377 2.6381 10.7773C2.32444 10.1776 2.1625 9.51013 2.16645 8.83333ZM12.1665 13C11.3424 13 10.5368 12.7556 9.85157 12.2978C9.16637 11.84 8.63232 11.1892 8.31695 10.4278C8.00159 9.66649 7.91907 8.82871 8.07985 8.02046C8.24062 7.2122 8.63745 6.46977 9.22017 5.88705C9.80289 5.30434 10.5453 4.9075 11.3536 4.74673C12.1618 4.58596 12.9996 4.66847 13.761 4.98384C14.5223 5.2992 15.1731 5.83325 15.6309 6.51846C16.0887 7.20366 16.3331 8.00924 16.3331 8.83333C16.3318 9.938 15.8924 10.997 15.1113 11.7781C14.3302 12.5593 13.2711 12.9987 12.1665 13Z" fill="#7A92CC"/>
</g>
<defs>
<clipPath id="clip0_7426_27269">
<rect width="20" height="20" fill="white" transform="translate(0.5 0.5)"/>
</clipPath>
</defs>
</svg>
