<svg width="21" height="21" viewBox="0 0 21 21" fill="none" xmlns="http://www.w3.org/2000/svg">
<g id="fi-rr-humidity" clip-path="url(#clip0_7426_27276)">
<path id="Vector" d="M16.9826 17.8153C22.6976 11.702 18.2484 5.7145 13.1784 1.482C12.432 0.84443 11.4826 0.494141 10.5009 0.494141C9.51927 0.494141 8.56983 0.84443 7.82341 1.482C2.75508 5.69283 -1.69159 11.7428 4.01841 17.8153C5.73748 19.5343 8.069 20.5 10.5001 20.5C12.9312 20.5 15.2635 19.5343 16.9826 17.8153ZM12.0992 2.75033C16.0834 6.14783 20.8584 11.3053 15.8034 16.637C14.3923 18.0348 12.4863 18.819 10.5001 18.819C8.51382 18.819 6.60788 18.0348 5.19675 16.637C0.13758 11.3037 4.92591 6.137 8.90091 2.752C9.34697 2.37173 9.91393 2.16287 10.5001 2.16287C11.0862 2.16287 11.6532 2.37173 12.0992 2.752V2.75033Z" fill="#7A92CC"/>
</g>
<defs>
<clipPath id="clip0_7426_27276">
<rect width="20" height="20" fill="white" transform="translate(0.5 0.5)"/>
</clipPath>
</defs>
</svg>
