<svg width="21" height="21" viewBox="0 0 21 21" fill="none" xmlns="http://www.w3.org/2000/svg">
<g id="fi-rr-phone-call" clip-path="url(#clip0_7426_27713)">
<path id="Vector" d="M11.333 1.33369C11.333 1.11267 11.4208 0.900712 11.5771 0.744432C11.7334 0.588152 11.9453 0.500354 12.1663 0.500354C14.3757 0.502781 16.4939 1.38153 18.0562 2.94381C19.6185 4.50609 20.4972 6.6243 20.4997 8.83369C20.4997 9.0547 20.4119 9.26666 20.2556 9.42294C20.0993 9.57922 19.8873 9.66702 19.6663 9.66702C19.4453 9.66702 19.2334 9.57922 19.0771 9.42294C18.9208 9.26666 18.833 9.0547 18.833 8.83369C18.831 7.06619 18.128 5.37165 16.8782 4.12183C15.6284 2.87202 13.9338 2.16901 12.1663 2.16702C11.9453 2.16702 11.7334 2.07922 11.5771 1.92294C11.4208 1.76666 11.333 1.5547 11.333 1.33369ZM12.1663 5.50035C13.0504 5.50035 13.8982 5.85154 14.5234 6.47667C15.1485 7.10179 15.4997 7.94963 15.4997 8.83369C15.4997 9.0547 15.5875 9.26666 15.7437 9.42294C15.9 9.57922 16.112 9.66702 16.333 9.66702C16.554 9.66702 16.766 9.57922 16.9223 9.42294C17.0785 9.26666 17.1663 9.0547 17.1663 8.83369C17.165 7.50801 16.6378 6.23701 15.7004 5.29962C14.763 4.36222 13.492 3.83501 12.1663 3.83369C11.9453 3.83369 11.7334 3.92149 11.5771 4.07777C11.4208 4.23405 11.333 4.44601 11.333 4.66702C11.333 4.88804 11.4208 5.1 11.5771 5.25628C11.7334 5.41256 11.9453 5.50035 12.1663 5.50035ZM19.7438 14.4495C20.2268 14.9338 20.4979 15.5898 20.4979 16.2737C20.4979 16.9576 20.2268 17.6136 19.7438 18.0979L18.9855 18.972C12.1605 25.5062 -4.44784 8.90202 1.9855 2.05535L2.94383 1.22202C3.42864 0.752585 4.07877 0.492895 4.75358 0.499133C5.42839 0.505371 6.07362 0.777036 6.54966 1.25535C6.5755 1.28119 8.11966 3.28702 8.11966 3.28702C8.57785 3.76838 8.83292 4.4078 8.83183 5.07236C8.83074 5.73692 8.57359 6.3755 8.11383 6.85535L7.14883 8.06869C7.68287 9.36628 8.46805 10.5456 9.45925 11.5388C10.4505 12.532 11.6281 13.3195 12.9247 13.8562L14.1455 12.8854C14.6254 12.426 15.2639 12.1691 15.9282 12.1682C16.5926 12.1672 17.2318 12.4223 17.713 12.8804C17.713 12.8804 19.718 14.4237 19.7438 14.4495ZM18.5972 15.6612C18.5972 15.6612 16.603 14.127 16.5772 14.1012C16.4055 13.931 16.1735 13.8355 15.9317 13.8355C15.69 13.8355 15.458 13.931 15.2863 14.1012C15.2638 14.1245 13.583 15.4637 13.583 15.4637C13.4697 15.5538 13.3349 15.6129 13.1919 15.6352C13.0488 15.6574 12.9024 15.6419 12.7672 15.5904C11.0875 14.965 9.56194 13.986 8.29369 12.7196C7.02544 11.4532 6.04416 9.92905 5.41633 8.25036C5.36066 8.11323 5.34251 7.96376 5.36375 7.8173C5.38499 7.67085 5.44484 7.53268 5.53716 7.41702C5.53716 7.41702 6.87633 5.73535 6.89883 5.71369C7.06905 5.54201 7.16456 5.31004 7.16456 5.06827C7.16456 4.82651 7.06905 4.59453 6.89883 4.42285C6.873 4.39785 5.33883 2.40202 5.33883 2.40202C5.16458 2.24578 4.93717 2.1621 4.7032 2.16814C4.46924 2.17419 4.24645 2.26949 4.0805 2.43452L3.12216 3.26785C-1.5795 8.92119 12.813 22.5154 17.7672 17.8337L18.5263 16.9587C18.7042 16.7939 18.8111 16.5664 18.8243 16.3243C18.8375 16.0821 18.7561 15.8444 18.5972 15.6612Z" fill="#7A92CC"/>
</g>
<defs>
<clipPath id="clip0_7426_27713">
<rect width="20" height="20" fill="white" transform="translate(0.5 0.5)"/>
</clipPath>
</defs>
</svg>
