<svg width="36" height="36" viewBox="0 0 36 36" fill="none" xmlns="http://www.w3.org/2000/svg">
<circle cx="18" cy="18" r="18" fill="#E0F0FF"/>
<path d="M7 17.6232C7.01637 17.6039 7.03081 17.5831 7.04314 17.5611C7.29993 16.9926 7.90389 16.8575 8.40257 17.2535C8.73486 17.5174 9.0656 17.7842 9.40918 18.0337C10.3973 18.7493 11.5179 19.0325 12.7474 19.0325C14.2763 19.0325 15.5269 18.4308 16.646 17.4811C17.3075 16.9196 17.9761 16.365 18.7383 15.9262C20.0089 15.1942 21.3883 14.9651 22.8469 15.0317C24.6403 15.1127 26.1178 15.8666 27.4336 16.9862C27.5261 17.0647 27.6241 17.1352 27.7135 17.2187C28.0607 17.5343 28.0956 18.0054 27.8003 18.3403C27.505 18.6752 27.015 18.7095 26.6412 18.4248C26.2873 18.1555 25.9463 17.8697 25.5858 17.6083C24.5977 16.8927 23.477 16.6105 22.2475 16.611C20.7181 16.611 19.4681 17.2148 18.3495 18.1644C17.6875 18.7259 17.0183 19.2795 16.2567 19.7188C14.9923 20.4478 13.6195 20.6759 12.1691 20.6133C10.3603 20.5358 8.87301 19.7725 7.54696 18.6444C7.32869 18.4611 7.1135 18.2832 7 18.0198V17.6232Z" fill="#2597D7"/>
<path d="M7 13.2983C7.01501 13.2773 7.0284 13.2552 7.04006 13.2322C7.27836 12.6677 7.8777 12.5186 8.37792 12.8943C8.86376 13.2576 9.33779 13.6397 9.84777 13.9677C10.5735 14.4353 11.4008 14.6376 12.2652 14.6828C13.2466 14.7325 14.1983 14.6082 15.0898 14.1794C15.7061 13.8812 16.2284 13.4568 16.762 13.0439C17.3963 12.5544 18.027 12.055 18.7003 11.6197C19.5672 11.0596 20.5512 10.7972 21.5886 10.7128C22.6979 10.6223 23.7826 10.7128 24.8354 11.0775C25.782 11.406 26.5857 11.9591 27.3473 12.5783C27.4834 12.6886 27.6221 12.7969 27.7479 12.9177C27.8966 13.057 27.9851 13.2458 27.9953 13.4459C28.0056 13.646 27.9368 13.8423 27.8031 13.9952C27.6693 14.1481 27.4805 14.246 27.2748 14.2692C27.0692 14.2925 26.8622 14.2392 26.6956 14.1202C26.2693 13.8107 25.8698 13.4678 25.4373 13.1696C24.3732 12.4381 23.172 12.2165 21.8849 12.2826C20.4094 12.3586 19.2585 13.0608 18.1785 13.9563C17.5696 14.4658 16.9267 14.9361 16.2541 15.3641C15.1391 16.0662 13.8793 16.2804 12.5625 16.2834C10.6772 16.2874 9.08717 15.5966 7.69076 14.4184C7.42421 14.1943 7.11607 14.0059 7 13.6551V13.2983Z" fill="#2597D7"/>
<path d="M7 21.9877C7.038 21.9107 7.06985 21.8307 7.11453 21.7581C7.17303 21.6608 7.25249 21.5767 7.34752 21.5117C7.44254 21.4466 7.55091 21.4021 7.66527 21.3811C7.77964 21.3602 7.89733 21.3632 8.01036 21.3901C8.1234 21.417 8.22913 21.4671 8.3204 21.537C8.66347 21.788 8.9824 22.0697 9.32752 22.3172C10.9504 23.4795 12.733 23.639 14.6117 23.0561C15.3564 22.8251 15.9686 22.3604 16.5633 21.8829C17.1108 21.4456 17.6526 20.9988 18.2242 20.5908C19.467 19.7053 20.8809 19.356 22.415 19.356C24.3003 19.356 25.8924 20.0368 27.2914 21.213C27.4305 21.3298 27.5764 21.4401 27.7109 21.5609C28.0525 21.8705 28.0894 22.3386 27.8039 22.666C27.5106 23.003 27.0253 23.0472 26.6468 22.7694C26.1471 22.4027 25.6654 22.0096 25.1446 21.6727C24.4194 21.2041 23.5916 21.0028 22.7272 20.9576C21.7458 20.9079 20.7941 21.0316 19.9025 21.461C19.2863 21.7591 18.764 22.183 18.2298 22.596C17.5961 23.0865 16.9649 23.5849 16.2921 24.0207C15.4262 24.5812 14.4432 24.8431 13.4048 24.9276C12.2955 25.018 11.2108 24.9276 10.158 24.5628C9.19964 24.2319 8.38665 23.6674 7.61629 23.0392C7.37131 22.8405 7.11247 22.6536 7 22.3435V21.9877Z" fill="#2597D7"/>
</svg>
