<svg width="18" height="22" viewBox="0 0 18 22" fill="none" xmlns="http://www.w3.org/2000/svg">
<path id="for_you" d="M8.8 11C9.99167 11 11.2292 10.9038 12.5125 10.7113C13.7958 10.5188 14.9875 10.2483 16.0875 9.9C16.4542 9.75333 16.7979 9.79917 17.1187 10.0375C17.4396 10.2758 17.6 10.5875 17.6 10.9725V18.8375C17.6 19.2958 17.4671 19.7129 17.2013 20.0888C16.9354 20.4646 16.5917 20.735 16.17 20.9C15.125 21.2483 13.9563 21.5188 12.6637 21.7113C11.3713 21.9038 10.0833 22 8.8 22C7.51667 22 6.22875 21.9038 4.93625 21.7113C3.64375 21.5188 2.475 21.2483 1.43 20.9C1.00833 20.735 0.664583 20.4646 0.39875 20.0888C0.132917 19.7129 0 19.2958 0 18.8375V10.9725C0 10.5875 0.160417 10.2758 0.48125 10.0375C0.802083 9.79917 1.14583 9.75333 1.5125 9.9C2.6125 10.2483 3.80417 10.5188 5.0875 10.7113C6.37083 10.9038 7.60833 11 8.8 11ZM15.4 18.7V12.375C14.4833 12.6317 13.4246 12.8333 12.2238 12.98C11.0229 13.1267 9.88167 13.2 8.8 13.2C7.71833 13.2 6.57708 13.1267 5.37625 12.98C4.17542 12.8333 3.11667 12.6317 2.2 12.375V18.7C3.11667 19.03 4.17083 19.2958 5.3625 19.4975C6.55417 19.6992 7.7 19.8 8.8 19.8C9.9 19.8 11.0458 19.6992 12.2375 19.4975C13.4292 19.2958 14.4833 19.03 15.4 18.7ZM8.8 0C10.01 0 11.0458 0.430833 11.9075 1.2925C12.7692 2.15417 13.2 3.19 13.2 4.4C13.2 5.61 12.7692 6.64583 11.9075 7.5075C11.0458 8.36917 10.01 8.8 8.8 8.8C7.59 8.8 6.55417 8.36917 5.6925 7.5075C4.83083 6.64583 4.4 5.61 4.4 4.4C4.4 3.19 4.83083 2.15417 5.6925 1.2925C6.55417 0.430833 7.59 0 8.8 0ZM8.8 6.6C9.405 6.6 9.92292 6.38458 10.3538 5.95375C10.7846 5.52292 11 5.005 11 4.4C11 3.795 10.7846 3.27708 10.3538 2.84625C9.92292 2.41542 9.405 2.2 8.8 2.2C8.195 2.2 7.67708 2.41542 7.24625 2.84625C6.81542 3.27708 6.6 3.795 6.6 4.4C6.6 5.005 6.81542 5.52292 7.24625 5.95375C7.67708 6.38458 8.195 6.6 8.8 6.6Z" fill="#7499FB"/>
</svg>
