<svg width="61" height="60" viewBox="0 0 61 60" fill="none" xmlns="http://www.w3.org/2000/svg">
<rect x="0.399902" width="60" height="60" rx="11.25" fill="#F6F8FE"/>
<mask id="mask0_11397_30557" style="mask-type:alpha" maskUnits="userSpaceOnUse" x="15" y="15" width="31" height="30">
<rect x="15.3999" y="15" width="30" height="30" fill="#D9D9D9"/>
</mask>
<g mask="url(#mask0_11397_30557)">
<path d="M24.1499 25.8333H36.6499V23.75H24.1499V25.8333ZM24.1499 31.0417H30.8374C31.2251 30.6237 31.6466 30.2363 32.1021 29.8793C32.5576 29.5223 33.0423 29.2153 33.5562 28.9583H24.1499V31.0417ZM24.1499 36.25H28.3929C28.4392 35.8819 28.5056 35.5249 28.5921 35.1788C28.6785 34.8328 28.7846 34.4954 28.9103 34.1667H24.1499V36.25ZM21.2332 41.25C20.6603 41.25 20.1699 41.046 19.7619 40.638C19.3539 40.2301 19.1499 39.7396 19.1499 39.1667V20.8333C19.1499 20.2604 19.3539 19.7699 19.7619 19.362C20.1699 18.954 20.6603 18.75 21.2332 18.75H39.5666C40.1395 18.75 40.63 18.954 41.0379 19.362C41.4459 19.7699 41.6499 20.2604 41.6499 20.8333V28.6771C41.3235 28.5382 40.9867 28.4149 40.6395 28.3073C40.2923 28.1997 39.9346 28.1181 39.5666 28.0625V20.8333H21.2332V39.1667H28.4624C28.518 39.5347 28.5996 39.8924 28.7072 40.2396C28.8148 40.5868 28.9381 40.9236 29.077 41.25H21.2332ZM37.8999 43.75C36.3791 43.75 35.0509 43.276 33.9155 42.3281C32.7801 41.3802 32.0666 40.1875 31.7749 38.75H33.7124C33.9832 39.6667 34.4989 40.4167 35.2593 41C36.0197 41.5833 36.8999 41.875 37.8999 41.875C39.1082 41.875 40.1395 41.4479 40.9937 40.5938C41.8478 39.7396 42.2749 38.7083 42.2749 37.5C42.2749 36.2917 41.8478 35.2604 40.9937 34.4063C40.1395 33.5521 39.1082 33.125 37.8999 33.125C37.2957 33.125 36.7332 33.2344 36.2124 33.4531C35.6916 33.6719 35.2332 33.9792 34.8374 34.375H36.6499V36.25H31.6499V31.25H33.5249V33.0313C34.0874 32.4896 34.7437 32.0573 35.4937 31.7344C36.2437 31.4115 37.0457 31.25 37.8999 31.25C39.6291 31.25 41.103 31.8594 42.3218 33.0781C43.5405 34.2969 44.1499 35.7708 44.1499 37.5C44.1499 39.2292 43.5405 40.7031 42.3218 41.9219C41.103 43.1406 39.6291 43.75 37.8999 43.75Z" fill="#2760EA"/>
</g>
</svg>
