<svg width="28" height="28" viewBox="0 0 28 28" fill="none" xmlns="http://www.w3.org/2000/svg">
<circle cx="14" cy="14" r="14" fill="#FFD7D7"/>
<path d="M14.0022 22.4C13.7965 22.3037 13.6153 22.1822 13.5604 21.9432C13.5448 21.8731 13.5371 21.8015 13.5374 21.7297C13.5374 21.2286 13.5374 20.7275 13.5374 20.2268V20.0405C13.1591 20.0405 12.7929 20.0424 12.4267 20.0405C12.3285 20.0423 12.2303 20.033 12.1342 20.0126C11.8338 19.94 11.6472 19.6656 11.6729 19.3488C11.6838 19.2086 11.7447 19.0768 11.8446 18.9773C11.9444 18.8778 12.0767 18.8171 12.2175 18.8062C12.5896 18.7868 12.9632 18.795 13.3364 18.7915H13.5273V17.0359C11.8977 16.8031 10.6078 16.0217 9.70944 14.645C9.01522 13.5811 8.75226 12.402 8.91276 11.1432C9.07166 9.86811 9.69374 8.69508 10.6615 7.84574C11.6293 6.99639 12.8757 6.52953 14.1654 6.53335C16.7452 6.53878 18.986 8.42474 19.3732 10.929C19.6023 12.4066 19.2856 13.7624 18.3825 14.9613C17.4795 16.1603 16.2668 16.8271 14.7887 17.0352V18.7915C14.9609 18.7915 15.1257 18.7915 15.2905 18.7915C15.5601 18.7938 15.83 18.7868 16.0985 18.8051C16.2392 18.8169 16.3711 18.8779 16.4709 18.9774C16.5708 19.0768 16.632 19.2083 16.6439 19.3485C16.6696 19.6652 16.483 19.9388 16.1826 20.0126C16.0967 20.0317 16.0089 20.0409 15.9208 20.0401C15.548 20.0432 15.1752 20.0401 14.7794 20.0401V20.2113C14.7794 20.6708 14.7634 21.1312 14.784 21.59C14.8016 21.973 14.68 22.2498 14.3134 22.4H14.0022ZM10.1185 11.6913C10.0632 13.8059 11.6935 15.7629 14.0836 15.8207C16.1896 15.8715 18.1137 14.2514 18.1936 11.9164C18.2661 9.7937 16.6279 7.85728 14.2706 7.78004C12.1357 7.71057 10.2061 9.34773 10.1185 11.6913Z" fill="#FF7C7C"/>
</svg>
