<svg width="28" height="28" viewBox="0 0 28 28" fill="none" xmlns="http://www.w3.org/2000/svg">
<g id="group">
<mask id="mask0_8897_1999" style="mask-type:alpha" maskUnits="userSpaceOnUse" x="0" y="0" width="28" height="28">
<rect id="Bounding box" width="28" height="28" fill="#D9D9D9"/>
</mask>
<g mask="url(#mask0_8897_1999)">
<path id="group_2" d="M1.16699 23.3332V20.0665C1.16699 19.4054 1.33713 18.7978 1.67741 18.2436C2.01769 17.6894 2.46977 17.2665 3.03366 16.9748C4.23921 16.3721 5.46421 15.92 6.70866 15.6186C7.9531 15.3172 9.21699 15.1665 10.5003 15.1665C11.7837 15.1665 13.0475 15.3172 14.292 15.6186C15.5364 15.92 16.7614 16.3721 17.967 16.9748C18.5309 17.2665 18.983 17.6894 19.3232 18.2436C19.6635 18.7978 19.8337 19.4054 19.8337 20.0665V23.3332H1.16699ZM22.167 23.3332V19.8332C22.167 18.9776 21.9288 18.1561 21.4524 17.3686C20.976 16.5811 20.3003 15.9054 19.4253 15.3415C20.417 15.4582 21.3503 15.6575 22.2253 15.9394C23.1003 16.2214 23.917 16.5665 24.6753 16.9748C25.3753 17.3637 25.91 17.7964 26.2795 18.2728C26.6489 18.7491 26.8337 19.2693 26.8337 19.8332V23.3332H22.167ZM10.5003 13.9998C9.21699 13.9998 8.11838 13.5429 7.20449 12.629C6.2906 11.7151 5.83366 10.6165 5.83366 9.33317C5.83366 8.04984 6.2906 6.95123 7.20449 6.03734C8.11838 5.12345 9.21699 4.6665 10.5003 4.6665C11.7837 4.6665 12.8823 5.12345 13.7962 6.03734C14.71 6.95123 15.167 8.04984 15.167 9.33317C15.167 10.6165 14.71 11.7151 13.7962 12.629C12.8823 13.5429 11.7837 13.9998 10.5003 13.9998ZM22.167 9.33317C22.167 10.6165 21.71 11.7151 20.7962 12.629C19.8823 13.5429 18.7837 13.9998 17.5003 13.9998C17.2864 13.9998 17.0142 13.9755 16.6837 13.9269C16.3531 13.8783 16.0809 13.8248 15.867 13.7665C16.392 13.1443 16.7955 12.454 17.0774 11.6957C17.3594 10.9373 17.5003 10.1498 17.5003 9.33317C17.5003 8.5165 17.3594 7.729 17.0774 6.97067C16.7955 6.21234 16.392 5.52206 15.867 4.89984C16.1392 4.80262 16.4114 4.73942 16.6837 4.71025C16.9559 4.68109 17.2281 4.6665 17.5003 4.6665C18.7837 4.6665 19.8823 5.12345 20.7962 6.03734C21.71 6.95123 22.167 8.04984 22.167 9.33317ZM3.50033 20.9998H17.5003V20.0665C17.5003 19.8526 17.4469 19.6582 17.3399 19.4832C17.233 19.3082 17.092 19.1721 16.917 19.0748C15.867 18.5498 14.8073 18.1561 13.7378 17.8936C12.6684 17.6311 11.5892 17.4998 10.5003 17.4998C9.41144 17.4998 8.33227 17.6311 7.26282 17.8936C6.19338 18.1561 5.13366 18.5498 4.08366 19.0748C3.90866 19.1721 3.76769 19.3082 3.66074 19.4832C3.5538 19.6582 3.50033 19.8526 3.50033 20.0665V20.9998ZM10.5003 11.6665C11.142 11.6665 11.6913 11.438 12.1482 10.9811C12.6052 10.5241 12.8337 9.97484 12.8337 9.33317C12.8337 8.6915 12.6052 8.1422 12.1482 7.68525C11.6913 7.22831 11.142 6.99984 10.5003 6.99984C9.85866 6.99984 9.30935 7.22831 8.85241 7.68525C8.39546 8.1422 8.16699 8.6915 8.16699 9.33317C8.16699 9.97484 8.39546 10.5241 8.85241 10.9811C9.30935 11.438 9.85866 11.6665 10.5003 11.6665Z" fill="#637EC0"/>
</g>
</g>
</svg>
