<svg width="40" height="40" viewBox="0 0 40 40" fill="none" xmlns="http://www.w3.org/2000/svg">
<circle cx="20" cy="20" r="20" fill="#E1F3BC"/>
<path d="M20.4538 20.131H15.8402C15.708 20.1319 15.5792 20.0884 15.4745 20.0076C15.3698 19.9268 15.2952 19.8132 15.2625 19.685C15.2292 19.5542 15.2423 19.416 15.2996 19.2938C15.357 19.1717 15.455 19.0733 15.5769 19.0155C15.6824 18.9711 15.796 18.9488 15.9105 18.9501C17.3619 18.9453 18.8133 18.9501 20.2647 18.9501H20.445C20.3735 18.7257 20.2515 18.5207 20.0884 18.3509C19.9302 18.173 19.7361 18.0305 19.519 17.9329C19.3018 17.8353 19.0665 17.7846 18.8285 17.7843C17.843 17.7787 16.8568 17.7843 15.8706 17.7843C15.4205 17.7843 15.1277 17.3686 15.2889 16.9696C15.3313 16.8618 15.405 16.7691 15.5006 16.7035C15.5962 16.638 15.7092 16.6025 15.8251 16.6018C18.1944 16.6018 20.5629 16.6018 22.9306 16.6018C23.0845 16.6031 23.2316 16.6654 23.3396 16.775C23.4477 16.8847 23.5077 17.0328 23.5067 17.1867C23.5075 17.2652 23.4927 17.3432 23.4631 17.4159C23.4334 17.4887 23.3896 17.5548 23.334 17.6103C23.2785 17.6659 23.2125 17.7099 23.1398 17.7396C23.0671 17.7693 22.9892 17.7843 22.9106 17.7835C22.3856 17.7891 21.8598 17.7835 21.3347 17.7835H21.2079L21.7161 18.919L21.6786 18.9525H21.8542C22.1949 18.9525 22.5356 18.9525 22.8771 18.9525C23.2402 18.9525 23.5051 19.2046 23.5067 19.5437C23.5083 19.8829 23.245 20.135 22.8811 20.1358H21.701C21.2262 21.7444 20.1498 22.524 18.4846 22.5072L18.4471 22.5591C18.4944 22.577 18.539 22.6014 18.5795 22.6317C19.7541 23.802 20.9275 24.9741 22.0999 26.1481C22.2747 26.3221 22.3728 26.5152 22.309 26.7673C22.2851 26.8654 22.2364 26.9556 22.1675 27.0294C22.0987 27.1032 22.0121 27.158 21.916 27.1887C21.8198 27.2194 21.7174 27.2249 21.6186 27.2046C21.5198 27.1843 21.4278 27.139 21.3515 27.0729C21.3228 27.049 21.2972 27.0227 21.2717 26.9931C19.729 25.4505 18.1877 23.91 16.6477 22.3716C16.4929 22.2168 16.394 22.042 16.4315 21.8178C16.4858 21.4987 16.718 21.3135 17.0698 21.3111C17.614 21.3111 18.1574 21.3111 18.7016 21.3111C18.9784 21.32 19.2537 21.2671 19.5075 21.1563C19.7261 21.0579 19.9225 20.9163 20.0851 20.7401C20.2478 20.5639 20.3731 20.3568 20.4538 20.131Z" fill="#7BC023"/>
<path d="M19.7041 9.66217C20.0129 9.66217 20.3217 9.65339 20.6297 9.66217C20.876 9.66566 21.1109 9.76686 21.2826 9.94351C21.4543 10.1202 21.5488 10.3578 21.5453 10.6041C21.5418 10.8504 21.4406 11.0853 21.264 11.257C21.0873 11.4287 20.8497 11.5232 20.6034 11.5197C19.2733 11.4902 17.9511 11.5461 16.6872 11.9985C13.0247 13.3095 10.7778 15.8692 10.1993 19.7232C9.44126 24.7884 12.7263 29.378 17.7357 30.444C22.7721 31.5133 27.9028 28.162 28.964 23.1255C29.224 21.8767 29.237 20.5891 29.0023 19.3354C28.9778 19.2107 28.9786 19.0825 29.0045 18.9581C29.0304 18.8338 29.0809 18.7159 29.1532 18.6114C29.2254 18.5069 29.3178 18.4179 29.425 18.3497C29.5321 18.2815 29.6518 18.2355 29.7771 18.2143C30.3652 18.1249 30.8224 18.4848 30.9237 19.0713C31.3298 21.4211 31.0921 23.6992 30.0755 25.8536C28.3624 29.4897 25.5154 31.7431 21.5497 32.4181C15.4672 33.4554 9.8474 29.6517 8.43668 23.6449C7.00042 17.5089 11.0475 11.1734 17.2178 9.91431C17.5481 9.84729 17.8809 9.77787 18.216 9.74356C18.7099 9.69329 19.2078 9.67334 19.7033 9.64062L19.7041 9.66217Z" fill="#7BC023"/>
<path d="M27.8528 13.7431C28.3186 13.7594 28.7856 13.7723 29.2517 13.7926C29.8121 13.8155 30.2154 14.2316 30.1996 14.7634C30.1875 15.3202 29.7571 15.7139 29.1807 15.696C27.9284 15.6579 26.6754 15.616 25.4218 15.5704C24.8484 15.5486 24.4547 15.1323 24.4723 14.5639C24.5127 13.2999 24.5565 12.0365 24.6036 10.7735C24.6039 10.6466 24.6301 10.5211 24.6804 10.4046C24.7308 10.2881 24.8044 10.1831 24.8966 10.096C24.9889 10.0088 25.0979 9.94136 25.217 9.89769C25.3362 9.85403 25.463 9.83508 25.5897 9.84199C26.1293 9.86141 26.5193 10.2843 26.5088 10.8451C26.4981 11.3122 26.484 11.7792 26.4722 12.2462C26.4722 12.2462 26.4842 12.2591 26.5065 12.283C26.5834 12.2168 26.6642 12.1502 26.7406 12.0789C27.7228 11.1631 28.6968 10.2373 29.6844 9.32621C30.2456 8.80948 31.0886 9.03258 31.288 9.74016C31.405 10.1558 31.2605 10.4935 30.949 10.7807C29.9836 11.6711 29.0241 12.5691 28.0613 13.4625C27.9831 13.5354 27.8913 13.5937 27.8072 13.658L27.8528 13.7431Z" fill="#7BC023"/>
</svg>
