<svg width="60" height="60" viewBox="0 0 60 60" fill="none" xmlns="http://www.w3.org/2000/svg">
<g id="Frame 1000001469">
<rect width="60" height="60" rx="11.25" fill="#F6F8FE"/>
<g id="photo_auto_merge">
<mask id="mask0_11397_30549" style="mask-type:alpha" maskUnits="userSpaceOnUse" x="15" y="15" width="30" height="30">
<rect id="Bounding box" x="15" y="15" width="30" height="30" fill="#2760EA"/>
</mask>
<g mask="url(#mask0_11397_30549)">
<g id="photo_auto_merge_2">
<path fill-rule="evenodd" clip-rule="evenodd" d="M24.5417 37.5419C23.9792 37.5419 23.4913 37.3353 23.0782 36.9221C22.6649 36.5089 22.4583 36.021 22.4583 35.4585V20.4168C22.4583 19.8543 22.6649 19.3665 23.0782 18.9533C23.4913 18.5401 23.9792 18.3335 24.5417 18.3335H33.1563C35.3414 18.3563 38.2499 18.3335 39.5832 18.3335C41.1473 18.3334 41.6667 19.1251 41.6667 20.4168C41.6249 21.3751 41.6627 25.1918 41.6667 26.5939V35.4585C41.6667 36.021 41.4601 36.5089 41.0469 36.9221C40.6337 37.3353 40.1459 37.5419 39.5834 37.5419H24.5417ZM24.5417 20.4168C30.851 20.4168 33.7499 20.4168 39.5832 20.4167V34.9965C39.6041 35.0198 39.6042 35.021 39.5834 35.0002C38.632 33.9169 37.5035 33.0558 36.198 32.4169C34.8924 31.778 33.5147 31.4585 32.0647 31.4585C30.591 31.4585 29.2066 31.7745 27.9115 32.4065C26.6163 33.0384 25.4931 33.903 24.5417 35.0002V20.4168ZM29.4271 34.0314C30.2743 33.705 31.1528 33.5418 32.0625 33.5418C32.9723 33.5418 33.8507 33.705 34.698 34.0314C35.5452 34.3578 36.2917 34.8335 36.9376 35.4585H27.1875C27.8333 34.8335 28.5799 34.3578 29.4271 34.0314Z" fill="#2760EA"/>
<path fill-rule="evenodd" clip-rule="evenodd" d="M39.5832 34.9965C39.5622 34.9732 39.5622 34.9744 39.5834 35.0002L39.5832 34.9965ZM19.4011 42.8856C19.849 43.2328 20.3611 43.3717 20.9375 43.3023L36.7397 41.3856C37.2327 41.33 37.6598 41.1408 38.0209 40.8179C38.382 40.495 38.5626 40.0974 38.5626 39.6252H33.7293L20.6875 41.2502L18.7708 26.3231L20.375 26.146V24.0418L18.5417 24.2502C17.9703 24.3196 17.5028 24.58 17.1392 25.0314C16.7756 25.4828 16.632 25.9967 16.7084 26.5731L18.6146 41.5002C18.691 42.0766 18.9532 42.5384 19.4011 42.8856ZM34.5209 23.0418C33.8403 22.3613 33.0209 22.021 32.0625 22.021C31.1042 22.021 30.2847 22.3613 29.6042 23.0418C28.9236 23.7224 28.5834 24.5418 28.5834 25.5002C28.5834 26.4643 28.9236 27.2817 29.6042 27.9524C30.2847 28.6231 31.1042 28.9585 32.0625 28.9585C33.0209 28.9585 33.8403 28.6217 34.5209 27.9481C35.2014 27.2745 35.5417 26.4585 35.5417 25.5002C35.5417 24.5418 35.2014 23.7224 34.5209 23.0418ZM31.0677 24.5054C31.3351 24.238 31.6667 24.1043 32.0625 24.1043C32.4584 24.1043 32.79 24.238 33.0573 24.5054C33.3247 24.7727 33.4584 25.1043 33.4584 25.5002C33.4584 25.896 33.3247 26.2276 33.0573 26.495C32.79 26.7623 32.4584 26.896 32.0625 26.896C31.6667 26.896 31.3351 26.7623 31.0677 26.495C30.8004 26.2276 30.6667 25.896 30.6667 25.5002C30.6667 25.1043 30.8004 24.7727 31.0677 24.5054Z" fill="#2760EA"/>
</g>
</g>
</g>
</g>
</svg>
