<svg width="40" height="40" viewBox="0 0 40 40" fill="none" xmlns="http://www.w3.org/2000/svg">
<rect width="40" height="40" rx="8" fill="white"/>
<path d="M25.8334 17.02V15.8333C25.8334 14.2862 25.2188 12.8025 24.1248 11.7085C23.0308 10.6146 21.5471 10 20 10C18.4529 10 16.9692 10.6146 15.8752 11.7085C14.7813 12.8025 14.1667 14.2862 14.1667 15.8333V17.02C13.4245 17.3439 12.7928 17.8771 12.3488 18.5543C11.9048 19.2316 11.6678 20.0235 11.6667 20.8333V25.8333C11.668 26.938 12.1074 27.997 12.8885 28.7782C13.6697 29.5593 14.7287 29.9987 15.8334 30H24.1667C25.2713 29.9987 26.3304 29.5593 27.1115 28.7782C27.8926 27.997 28.332 26.938 28.3334 25.8333V20.8333C28.3323 20.0235 28.0953 19.2316 27.6513 18.5543C27.2073 17.8771 26.5756 17.3439 25.8334 17.02ZM15.8334 15.8333C15.8334 14.7283 16.2723 13.6685 17.0537 12.8871C17.8351 12.1057 18.895 11.6667 20 11.6667C21.1051 11.6667 22.1649 12.1057 22.9463 12.8871C23.7277 13.6685 24.1667 14.7283 24.1667 15.8333V16.6667H15.8334V15.8333ZM26.6667 25.8333C26.6667 26.4964 26.4033 27.1323 25.9345 27.6011C25.4656 28.0699 24.8297 28.3333 24.1667 28.3333H15.8334C15.1703 28.3333 14.5344 28.0699 14.0656 27.6011C13.5967 27.1323 13.3334 26.4964 13.3334 25.8333V20.8333C13.3334 20.1703 13.5967 19.5344 14.0656 19.0656C14.5344 18.5967 15.1703 18.3333 15.8334 18.3333H24.1667C24.8297 18.3333 25.4656 18.5967 25.9345 19.0656C26.4033 19.5344 26.6667 20.1703 26.6667 20.8333V25.8333Z" fill="#008CDB"/>
<path d="M20 21.6666C19.779 21.6666 19.567 21.7544 19.4108 21.9107C19.2545 22.067 19.1667 22.2789 19.1667 22.5V24.1666C19.1667 24.3876 19.2545 24.5996 19.4108 24.7559C19.567 24.9122 19.779 25 20 25C20.221 25 20.433 24.9122 20.5893 24.7559C20.7456 24.5996 20.8334 24.3876 20.8334 24.1666V22.5C20.8334 22.2789 20.7456 22.067 20.5893 21.9107C20.433 21.7544 20.221 21.6666 20 21.6666Z" fill="#008CDB"/>
</svg>
