<svg width="36" height="36" viewBox="0 0 36 36" fill="none" xmlns="http://www.w3.org/2000/svg">
<circle cx="18" cy="18" r="18" fill="#E0F0FF"/>
<path d="M28 18.0019C28 23.5905 23.5609 28.0063 17.9434 28.0055C12.4343 28.0047 7.98399 23.5062 8.00004 17.9586C8.0169 12.3892 12.6205 7.9349 18.1658 8.00072C23.5585 8.06574 27.9992 12.5265 28 18.0019ZM27.1716 17.9891C27.2366 13.0402 23.1082 8.9367 18.2139 8.82753C13.1046 8.71274 8.79715 12.9054 8.82444 18.0115C8.85174 23.027 12.8967 27.1056 17.8158 27.1955C22.9862 27.2871 27.2655 23.0117 27.1716 17.9891Z" fill="#2597D7"/>
<path d="M15.2051 18.0051C15.2051 19.1386 14.3518 20.0023 13.2216 20.0119C12.9592 20.0126 12.6992 19.9615 12.4566 19.8617C12.2139 19.7619 11.9933 19.6152 11.8074 19.4301C11.6214 19.2451 11.4737 19.0251 11.3727 18.783C11.2717 18.5408 11.2194 18.2811 11.2188 18.0188C11.2181 17.7564 11.2692 17.4964 11.369 17.2538C11.4688 17.0111 11.6155 16.7905 11.8005 16.6046C11.9856 16.4186 12.2055 16.2709 12.4477 16.1699C12.6899 16.0689 12.9495 16.0166 13.2119 16.0159C13.4746 16.0112 13.7356 16.0593 13.9794 16.1576C14.2231 16.2558 14.4445 16.4021 14.6305 16.5877C14.8165 16.7733 14.9632 16.9944 15.0619 17.238C15.1607 17.4815 15.2093 17.7424 15.2051 18.0051ZM14.408 18.0284C14.4154 17.8688 14.3899 17.7094 14.3332 17.5601C14.2764 17.4108 14.1895 17.2747 14.078 17.1604C13.9664 17.046 13.8325 16.9558 13.6847 16.8954C13.5368 16.835 13.3781 16.8056 13.2184 16.809C12.9144 16.8262 12.6282 16.9579 12.4174 17.1776C12.2066 17.3973 12.0869 17.6887 12.0823 17.9931C12.0777 18.2975 12.1887 18.5924 12.3927 18.8183C12.5968 19.0443 12.8789 19.1845 13.1822 19.2108C13.8774 19.2261 14.3984 18.7252 14.408 18.0284Z" fill="#2597D7"/>
<path d="M17.9895 20.0079C17.7231 20.01 17.4589 19.9582 17.213 19.8557C16.967 19.7532 16.7443 19.602 16.5583 19.4113C16.3722 19.2206 16.2266 18.9942 16.1301 18.7458C16.0337 18.4974 15.9885 18.2321 15.9971 17.9658C16.0156 16.8508 16.9058 15.9991 18.0385 16.0127C19.1711 16.0264 20.01 16.8957 20.0019 18.0348C19.9939 19.1586 19.1238 20.0151 17.9895 20.0079ZM18.0088 16.809C17.7708 16.8076 17.5378 16.8768 17.339 17.0077C17.1403 17.1386 16.9849 17.3255 16.8923 17.5448C16.7998 17.764 16.7742 18.0057 16.819 18.2395C16.8637 18.4732 16.9767 18.6884 17.1437 18.858C17.3107 19.0275 17.5241 19.1438 17.7572 19.1921C17.9902 19.2404 18.2323 19.2186 18.4529 19.1294C18.6735 19.0402 18.8628 18.8877 18.9968 18.691C19.1307 18.4943 19.2034 18.2623 19.2056 18.0244C19.2124 17.8645 19.1862 17.705 19.1287 17.5557C19.0712 17.4064 18.9836 17.2706 18.8714 17.1566C18.7591 17.0426 18.6246 16.9529 18.4762 16.8931C18.3278 16.8333 18.1687 16.8047 18.0088 16.809Z" fill="#2597D7"/>
<path d="M22.7871 16.0128C23.923 16.0056 24.7939 16.8548 24.8019 17.9843C24.81 19.1137 23.9663 19.9911 22.8401 20.008C21.6906 20.0224 20.8132 19.1675 20.7971 18.0164C20.7928 17.7532 20.8413 17.4919 20.9396 17.2478C21.0379 17.0036 21.1841 16.7816 21.3696 16.5949C21.555 16.4082 21.776 16.2605 22.0195 16.1605C22.2629 16.0605 22.5239 16.0103 22.7871 16.0128ZM22.8088 19.2117C23.1133 19.1922 23.3991 19.0578 23.6083 18.8357C23.8176 18.6136 23.9347 18.3204 23.936 18.0152C23.9374 17.7101 23.8228 17.4158 23.6155 17.1919C23.4081 16.968 23.1235 16.8312 22.8192 16.8091C22.1208 16.8019 21.6047 17.3092 21.6031 18.0052C21.5974 18.1651 21.6246 18.3244 21.6832 18.4734C21.7417 18.6223 21.8303 18.7575 21.9434 18.8707C22.0566 18.9839 22.1918 19.0726 22.3406 19.1312C22.4895 19.1899 22.6489 19.2173 22.8088 19.2117Z" fill="#2597D7"/>
</svg>
