<svg width="25" height="24" viewBox="0 0 25 24" fill="none" xmlns="http://www.w3.org/2000/svg">
<g id="note_stack">
<mask id="mask0_5449_110" style="mask-type:alpha" maskUnits="userSpaceOnUse" x="0" y="0" width="25" height="24">
<rect id="Bounding box" x="0.5" width="24" height="24" fill="#D9D9D9"/>
</mask>
<g mask="url(#mask0_5449_110)">
<path id="note_stack_2" d="M7.49977 19.9998V8.97477C7.49977 8.42477 7.69977 7.9581 8.09977 7.57477C8.49977 7.19144 8.97477 6.99977 9.52477 6.99977H20.4998C21.0498 6.99977 21.5206 7.1956 21.9123 7.58727C22.3039 7.97894 22.4998 8.44977 22.4998 8.99977V16.9998L17.4998 21.9998H9.49977C8.94977 21.9998 8.47894 21.8039 8.08727 21.4123C7.6956 21.0206 7.49977 20.5498 7.49977 19.9998ZM2.52477 6.24977C2.42477 5.69977 2.5331 5.20394 2.84977 4.76227C3.16644 4.3206 3.59977 4.04977 4.14977 3.94977L14.9998 2.02477C15.5498 1.92477 16.0456 2.0331 16.4873 2.34977C16.9289 2.66644 17.1998 3.09977 17.2998 3.64977L17.5498 4.99977H15.4998L15.3248 3.99977L4.49977 5.92477L5.49977 11.5748V18.5498C5.2331 18.3998 5.00394 18.1998 4.81227 17.9498C4.6206 17.6998 4.49977 17.4164 4.44977 17.0998L2.52477 6.24977ZM9.49977 8.99977V19.9998H16.4998V15.9998H20.4998V8.99977H9.49977Z" fill="#999999"/>
</g>
</g>
</svg>
