<svg width="24" height="24" viewBox="0 0 24 24" fill="none" xmlns="http://www.w3.org/2000/svg">
<rect width="24" height="24" fill="#4C4C4C"/>
<g id="Student enrollment">
<path d="M-966 -1866C-966 -1867.1 -965.105 -1868 -964 -1868H13726C13727.1 -1868 13728 -1867.1 13728 -1866V2797C13728 2798.1 13727.1 2799 13726 2799H-964C-965.104 2799 -966 2798.1 -966 2797V-1866Z" fill="black" fill-opacity="0.2"/>
<path d="M-964 -1867H13726V-1869H-964V-1867ZM13727 -1866V2797H13729V-1866H13727ZM13726 2798H-964V2800H13726V2798ZM-965 2797V-1866H-967V2797H-965ZM-964 2798C-964.552 2798 -965 2797.55 -965 2797H-967C-967 2798.66 -965.656 2800 -964 2800V2798ZM13727 2797C13727 2797.55 13726.6 2798 13726 2798V2800C13727.7 2800 13729 2798.66 13729 2797H13727ZM13726 -1867C13726.6 -1867 13727 -1866.55 13727 -1866H13729C13729 -1867.66 13727.7 -1869 13726 -1869V-1867ZM-964 -1869C-965.657 -1869 -967 -1867.66 -967 -1866H-965C-965 -1866.55 -964.552 -1867 -964 -1867V-1869Z" fill="black" fill-opacity="0.1"/>
<g id="Academic Performance">
<rect x="-617.5" y="-499.5" width="693" height="911" rx="4.5" stroke="#9747FF" stroke-dasharray="10 5"/>
<g id="Property 1=Variant2">
<rect x="-602" y="-36" width="662" height="432" rx="20" fill="white"/>
<g id="Frame 427318895">
<g id="Frame 1000001498">
<g id="page_info">
<mask id="mask0_9116_399" style="mask-type:alpha" maskUnits="userSpaceOnUse" x="0" y="0" width="24" height="24">
<rect id="Bounding box" width="24" height="24" fill="#D9D9D9"/>
</mask>
<g mask="url(#mask0_9116_399)">
<path id="page_info_2" d="M17.75 20.25C16.7 20.25 15.8125 19.8875 15.0875 19.1625C14.3625 18.4375 14 17.55 14 16.5C14 15.45 14.3625 14.5625 15.0875 13.8375C15.8125 13.1125 16.7 12.75 17.75 12.75C18.8 12.75 19.6875 13.1125 20.4125 13.8375C21.1375 14.5625 21.5 15.45 21.5 16.5C21.5 17.55 21.1375 18.4375 20.4125 19.1625C19.6875 19.8875 18.8 20.25 17.75 20.25ZM17.75 18.25C18.2333 18.25 18.6458 18.0792 18.9875 17.7375C19.3292 17.3958 19.5 16.9833 19.5 16.5C19.5 16.0167 19.3292 15.6042 18.9875 15.2625C18.6458 14.9208 18.2333 14.75 17.75 14.75C17.2667 14.75 16.8542 14.9208 16.5125 15.2625C16.1708 15.6042 16 16.0167 16 16.5C16 16.9833 16.1708 17.3958 16.5125 17.7375C16.8542 18.0792 17.2667 18.25 17.75 18.25ZM4 17.5V15.5H12V17.5H4ZM6.25 11.25C5.2 11.25 4.3125 10.8875 3.5875 10.1625C2.8625 9.4375 2.5 8.55 2.5 7.5C2.5 6.45 2.8625 5.5625 3.5875 4.8375C4.3125 4.1125 5.2 3.75 6.25 3.75C7.3 3.75 8.1875 4.1125 8.9125 4.8375C9.6375 5.5625 10 6.45 10 7.5C10 8.55 9.6375 9.4375 8.9125 10.1625C8.1875 10.8875 7.3 11.25 6.25 11.25ZM6.25 9.25C6.73333 9.25 7.14583 9.07917 7.4875 8.7375C7.82917 8.39583 8 7.98333 8 7.5C8 7.01667 7.82917 6.60417 7.4875 6.2625C7.14583 5.92083 6.73333 5.75 6.25 5.75C5.76667 5.75 5.35417 5.92083 5.0125 6.2625C4.67083 6.60417 4.5 7.01667 4.5 7.5C4.5 7.98333 4.67083 8.39583 5.0125 8.7375C5.35417 9.07917 5.76667 9.25 6.25 9.25ZM12 8.5V6.5H20V8.5H12Z" fill="#1C1B1F"/>
</g>
</g>
</g>
</g>
</g>
</g>
</g>
</svg>
