<svg width="26" height="25" viewBox="0 0 26 25" fill="none" xmlns="http://www.w3.org/2000/svg">
<mask id="mask0_3178_31227" style="mask-type:alpha" maskUnits="userSpaceOnUse" x="0" y="0" width="25" height="25">
<rect x="0.5" y="0.5" width="24" height="24" fill="#D9D9D9"/>
</mask>
<g mask="url(#mask0_3178_31227)">
<path d="M14.5 13.5C13.6667 13.5 12.9583 13.2083 12.375 12.625C11.7917 12.0417 11.5 11.3333 11.5 10.5C11.5 9.66667 11.7917 8.95833 12.375 8.375C12.9583 7.79167 13.6667 7.5 14.5 7.5C15.3333 7.5 16.0417 7.79167 16.625 8.375C17.2083 8.95833 17.5 9.66667 17.5 10.5C17.5 11.3333 17.2083 12.0417 16.625 12.625C16.0417 13.2083 15.3333 13.5 14.5 13.5ZM7.5 16.5C6.95 16.5 6.47917 16.3042 6.0875 15.9125C5.69583 15.5208 5.5 15.05 5.5 14.5V6.5C5.5 5.95 5.69583 5.47917 6.0875 5.0875C6.47917 4.69583 6.95 4.5 7.5 4.5H21.5C22.05 4.5 22.5208 4.69583 22.9125 5.0875C23.3042 5.47917 23.5 5.95 23.5 6.5V14.5C23.5 15.05 23.3042 15.5208 22.9125 15.9125C22.5208 16.3042 22.05 16.5 21.5 16.5H7.5ZM9.5 14.5H19.5C19.5 13.95 19.6958 13.4792 20.0875 13.0875C20.4792 12.6958 20.95 12.5 21.5 12.5V8.5C20.95 8.5 20.4792 8.30417 20.0875 7.9125C19.6958 7.52083 19.5 7.05 19.5 6.5H9.5C9.5 7.05 9.30417 7.52083 8.9125 7.9125C8.52083 8.30417 8.05 8.5 7.5 8.5V12.5C8.05 12.5 8.52083 12.6958 8.9125 13.0875C9.30417 13.4792 9.5 13.95 9.5 14.5ZM20.5 20.5H3.5C2.95 20.5 2.47917 20.3042 2.0875 19.9125C1.69583 19.5208 1.5 19.05 1.5 18.5V7.5H3.5V18.5H20.5V20.5Z" fill="#BEBEBE"/>
</g>
<path d="M16.5 22.9L12.5 18.9L13.9 17.5L16.5 20.1L23.1 13.5L24.5 14.9L16.5 22.9Z" fill="#BEBEBE"/>
<path fill-rule="evenodd" clip-rule="evenodd" d="M16.5 24.3142L11.0858 18.9L11.6033 18.3825L13.4858 16.5H13.5H14.3142L16.3142 18.5L16.5 18.6858L16.6858 18.5L20.5078 14.5H18.5117L20.7567 12.3932L23.7459 12.7317L25.9142 14.9L16.5 24.3142ZM16.5 20.1L23.1 13.5L24.5 14.9L16.5 22.9L12.5 18.9L13.9 17.5L16.5 20.1Z" fill="white"/>
<path d="M16.3142 18.5L16.5 18.6858L16.6858 18.5H16.3142Z" fill="white"/>
<path d="M10.5087 18.3825L11.0858 18.9L11.6033 18.3825H10.5087Z" fill="white"/>
</svg>
