<svg width="20" height="20" viewBox="0 0 20 20" fill="none" xmlns="http://www.w3.org/2000/svg">
<path d="M0 9.4111C0.0489185 9.03239 0.0880533 8.65172 0.153604 8.27594C0.55816 5.95865 1.65834 4.02693 3.41647 2.4744C4.90946 1.15576 6.65292 0.355763 8.6258 0.0959491C11.1043 -0.233508 13.3936 0.285468 15.4935 1.65288C16.6153 2.38288 17.5758 3.33505 18.3156 4.45065C18.343 4.49175 18.3743 4.52943 18.4354 4.61065V4.3753C18.4354 3.75684 18.4354 3.13837 18.4354 2.5199C18.4354 2.02474 18.7637 1.67636 19.2181 1.67734C19.6726 1.67832 19.9954 2.0267 19.9974 2.52284C19.9974 3.25678 20.0033 3.99414 19.9974 4.73004C19.9842 6.16416 18.9065 7.24549 17.4727 7.26066C16.7047 7.26898 15.9367 7.26458 15.1686 7.26066C14.677 7.26066 14.3307 6.92598 14.337 6.47045C14.3419 6.02471 14.6868 5.70177 15.1686 5.69982C15.8535 5.69639 16.5349 5.69982 17.2628 5.69982C17.1469 5.51927 17.0549 5.35731 16.9468 5.21052C15.1403 2.72981 12.7002 1.48799 9.63401 1.57508C7.63129 1.63184 5.87413 2.37752 4.38065 3.72112C3.01093 4.9512 2.11083 6.46116 1.74786 8.26714C1.25867 10.6955 1.72389 12.9379 3.18557 14.9465C4.45452 16.6893 6.15444 17.7951 8.26625 18.2526C9.00495 18.4124 9.76237 18.4681 10.5165 18.418C10.6778 18.4026 10.8405 18.4083 11.0003 18.4351C11.1801 18.4747 11.3395 18.5781 11.4491 18.7262C11.5586 18.8742 11.6108 19.0569 11.5961 19.2405C11.5824 19.4242 11.5043 19.5972 11.3757 19.729C11.247 19.8609 11.076 19.9431 10.8927 19.9612L10.5067 20.0004H9.4129C9.14923 19.9686 8.88458 19.9421 8.62188 19.905C6.64998 19.6261 4.90701 18.8388 3.415 17.5206C1.65736 15.9681 0.55816 14.0364 0.153604 11.7201C0.0880533 11.3423 0.0489185 10.9617 0 10.583V9.4111Z" fill="#F5BC28"/>
<path d="M11.0486 7.60799C11.0486 8.61691 11.0452 9.62584 11.0486 10.6348C11.0525 10.765 11.029 10.8945 10.9796 11.0151C10.9302 11.1356 10.8561 11.2444 10.7619 11.3344C9.76627 12.3274 8.7716 13.321 7.7779 14.3152C7.29997 14.7903 6.58135 14.6269 6.41943 14.0084C6.3397 13.7046 6.43851 13.4453 6.65669 13.2256C6.97857 12.903 7.30078 12.5807 7.62332 12.2587C8.1893 11.6926 8.75236 11.1236 9.32372 10.5623C9.37827 10.5141 9.42147 10.4544 9.45023 10.3875C9.47898 10.3205 9.49258 10.2481 9.49005 10.1753C9.48385 8.30034 9.48255 6.42472 9.48613 4.54845C9.48613 4.14478 9.67594 3.85169 10.0042 3.73622C10.5247 3.55274 11.0427 3.92656 11.0461 4.5005C11.0525 5.49033 11.0461 6.47968 11.0461 7.46903L11.0486 7.60799Z" fill="#F5BC28"/>
<path d="M13.8232 19.0663C13.6515 19.0591 13.4866 18.9974 13.3523 18.8903C13.2179 18.7832 13.1211 18.6361 13.0757 18.4704C13.0301 18.3092 13.0396 18.1375 13.1027 17.9823C13.1658 17.8272 13.2789 17.6976 13.424 17.6141C13.6835 17.4661 13.9504 17.3317 14.2238 17.2114C14.4045 17.1321 14.6086 17.1254 14.7941 17.1925C14.9796 17.2596 15.1322 17.3955 15.2203 17.572C15.3112 17.7439 15.3325 17.9442 15.28 18.1314C15.2275 18.3186 15.105 18.4785 14.938 18.578C14.6768 18.7341 14.3999 18.8638 14.1226 18.9934C14.0316 19.0365 13.9235 19.0433 13.8232 19.0663Z" fill="#F5BC28"/>
<path d="M18.073 12.4556C18.1459 12.2061 18.2252 11.8195 18.3724 11.4648C18.5138 11.1223 18.9296 10.9848 19.2847 11.0988C19.6399 11.2128 19.8718 11.5568 19.8082 11.9306C19.7511 12.2565 19.6682 12.5774 19.5602 12.8901C19.4339 13.2536 19.0548 13.4283 18.6542 13.3451C18.3181 13.2761 18.0696 12.9532 18.073 12.4556Z" fill="#F5BC28"/>
<path d="M17.4437 14.5908C18.0366 14.5908 18.4221 15.2435 18.1085 15.7455C17.9214 16.0347 17.7041 16.3032 17.4603 16.5465C17.1844 16.8293 16.7241 16.8166 16.433 16.5578C16.288 16.4338 16.1947 16.2599 16.1716 16.0705C16.1485 15.8811 16.1973 15.6899 16.3083 15.5347C16.4873 15.29 16.685 15.0532 16.8865 14.8237C16.9559 14.7455 17.042 14.6839 17.1385 14.6436C17.235 14.6033 17.3393 14.5852 17.4437 14.5908Z" fill="#F5BC28"/>
</svg>
