<svg width="40" height="40" viewBox="0 0 40 40" fill="none" xmlns="http://www.w3.org/2000/svg">
<rect width="40" height="40" rx="8" fill="white"/>
<g clip-path="url(#clip0_2890_437)">
<path d="M21.6667 14.1666C21.6667 13.7066 22.0392 13.3333 22.5 13.3333H25V10.8333C25 10.3733 25.3725 9.99997 25.8333 9.99997C26.2942 9.99997 26.6667 10.3733 26.6667 10.8333V13.3333H29.1667C29.6275 13.3333 30 13.7066 30 14.1666C30 14.6266 29.6275 15 29.1667 15H26.6667V17.5C26.6667 17.96 26.2942 18.3333 25.8333 18.3333C25.3725 18.3333 25 17.96 25 17.5V15H22.5C22.0392 15 21.6667 14.6266 21.6667 14.1666ZM29.245 23.95C30.25 24.9558 30.25 26.5916 29.245 27.5966L28.485 28.4716C27.49 29.4716 26.195 29.9991 24.8008 29.9991C18.4383 30 10 21.5616 10 15.1983C10 13.8041 10.5283 12.5091 11.4867 11.5525L12.4442 10.7166C13.4067 9.74997 15.045 9.74914 16.05 10.7558C16.0758 10.7816 17.6192 12.7875 17.6192 12.7875C18.5708 13.7841 18.5692 15.3616 17.6142 16.355L16.6483 17.5683C17.8633 20.3258 19.7592 22.2258 22.425 23.3575L23.645 22.3866C24.6392 21.4308 26.2175 21.43 27.2133 22.3808C27.2133 22.3808 29.2192 23.925 29.245 23.95ZM28.0983 25.1616C28.0983 25.1616 26.1025 23.6266 26.0775 23.6008C25.7325 23.2558 25.1317 23.2558 24.7867 23.6008C24.765 23.6233 23.0833 24.9633 23.0833 24.9633C22.8533 25.1466 22.5408 25.1941 22.2675 25.0891C18.8167 23.7725 16.3442 21.3025 14.9167 17.7458C14.805 17.4675 14.8508 17.1508 15.0383 16.9166C15.0383 16.9166 16.3775 15.235 16.4008 15.2133C16.7567 14.8575 16.7567 14.2783 16.4008 13.9225C16.3758 13.8975 14.8408 11.9033 14.8408 11.9033C14.6675 11.7466 14.4475 11.6675 14.2292 11.6675C13.995 11.6675 13.7608 11.7566 13.5833 11.9341L12.625 12.7716C12.0233 13.375 11.67 14.25 11.67 15.1991C11.67 20.9966 19.8133 28.3341 24.805 28.3341C25.7533 28.3341 26.6283 27.98 27.2708 27.3366L28.0308 26.4616C28.4133 26.0758 28.425 25.52 28.1017 25.1616H28.0983Z" fill="#008CDB"/>
</g>
<defs>
<clipPath id="clip0_2890_437">
<rect width="20" height="20" fill="white" transform="translate(10 10)"/>
</clipPath>
</defs>
</svg>
