<svg width="16" height="20" viewBox="0 0 16 20" fill="none" xmlns="http://www.w3.org/2000/svg">
<path d="M4.09375 9.73937V8.17692H11.9062V9.73937H4.09375ZM4.09375 5.5727V4.01025H11.9062V5.5727H4.09375ZM1.74997 12.3436H9.56247C10.0259 12.3436 10.4546 12.4437 10.8485 12.6441C11.2425 12.8444 11.577 13.1275 11.8521 13.4934L14.25 16.6184V1.98703C14.25 1.89354 14.2199 1.81674 14.1598 1.75663C14.0997 1.69653 14.0229 1.66648 13.9294 1.66648H2.07052C1.97703 1.66648 1.90023 1.69653 1.84013 1.75663C1.78003 1.81674 1.74997 1.89354 1.74997 1.98703V12.3436ZM2.07052 18.3331H13.5909L10.6222 14.4489C10.4913 14.2766 10.3354 14.1431 10.1544 14.0483C9.97347 13.9534 9.77615 13.906 9.56247 13.906H1.74997V18.0126C1.74997 18.1061 1.78003 18.1829 1.84013 18.243C1.90023 18.3031 1.97703 18.3331 2.07052 18.3331ZM13.9294 19.8956H2.07052C1.54434 19.8956 1.09896 19.7133 0.734375 19.3487C0.369792 18.9842 0.1875 18.5388 0.1875 18.0126V1.98703C0.1875 1.46085 0.369792 1.01546 0.734375 0.650879C1.09896 0.286296 1.54434 0.104004 2.07052 0.104004H13.9294C14.4556 0.104004 14.901 0.286296 15.2656 0.650879C15.6302 1.01546 15.8124 1.46085 15.8124 1.98703V18.0126C15.8124 18.5388 15.6302 18.9842 15.2656 19.3487C14.901 19.7133 14.4556 19.8956 13.9294 19.8956Z" fill="#999999"/>
</svg>
