<svg width="61" height="60" viewBox="0 0 61 60" fill="none" xmlns="http://www.w3.org/2000/svg">
<rect x="0.199951" width="60" height="60" rx="11.25" fill="#FFF0F0"/>
<mask id="mask0_11397_30573" style="mask-type:alpha" maskUnits="userSpaceOnUse" x="15" y="15" width="31" height="30">
<rect x="15.2" y="15" width="30" height="30" fill="#2760EA"/>
</mask>
<g mask="url(#mask0_11397_30573)">
<path d="M36.7344 30.9809L35.2761 29.5226L37.8698 26.8976L35.2761 24.3039L36.7344 22.8351L39.3594 25.4393L41.9531 22.8351L43.4219 24.3039L40.8177 26.8976L43.4219 29.5226L41.9531 30.9809L39.3594 28.3872L36.7344 30.9809ZM26.2344 30.0018C24.8594 30.0018 23.717 29.5469 22.8073 28.6372C21.8976 27.7275 21.4427 26.5851 21.4427 25.2101C21.4427 23.8351 21.8976 22.6928 22.8073 21.7831C23.717 20.8733 24.8594 20.4185 26.2344 20.4185C27.6094 20.4185 28.7517 20.8733 29.6615 21.7831C30.5712 22.6928 31.026 23.8351 31.026 25.2101C31.026 26.5851 30.5712 27.7275 29.6615 28.6372C28.7517 29.5469 27.6094 30.0018 26.2344 30.0018ZM16.2344 40.0226V36.8976C16.2344 36.1754 16.4167 35.5174 16.7812 34.9237C17.1458 34.3299 17.658 33.8837 18.3177 33.5851C19.7899 32.9115 21.1545 32.4271 22.4115 32.132C23.6684 31.8369 24.9427 31.6893 26.2344 31.6893C27.526 31.6893 28.7969 31.8369 30.0469 32.132C31.2969 32.4271 32.658 32.9115 34.1302 33.5851C34.7899 33.8976 35.3056 34.3473 35.6771 34.9341C36.0486 35.5209 36.2344 36.1754 36.2344 36.8976V40.0226H16.2344ZM18.3177 37.9393H34.1511V36.8976C34.1511 36.599 34.0695 36.3178 33.9062 36.0539C33.7431 35.79 33.5261 35.5921 33.2552 35.4601C31.8941 34.8143 30.6823 34.3716 29.6198 34.132C28.5573 33.8924 27.4288 33.7726 26.2344 33.7726C25.0399 33.7726 23.908 33.8924 22.8385 34.132C21.7691 34.3716 20.5538 34.8143 19.1927 35.4601C18.9219 35.5921 18.7083 35.79 18.5521 36.0539C18.3958 36.3178 18.3177 36.599 18.3177 36.8976V37.9393ZM26.2344 27.9185C27.0052 27.9185 27.6493 27.6598 28.1667 27.1424C28.684 26.6251 28.9427 25.9809 28.9427 25.2101C28.9427 24.4393 28.684 23.7952 28.1667 23.2778C27.6493 22.7605 27.0052 22.5018 26.2344 22.5018C25.4635 22.5018 24.8194 22.7605 24.3021 23.2778C23.7847 23.7952 23.526 24.4393 23.526 25.2101C23.526 25.9809 23.7847 26.6251 24.3021 27.1424C24.8194 27.6598 25.4635 27.9185 26.2344 27.9185Z" fill="#F05151"/>
</g>
</svg>
