<svg width="32" height="32" viewBox="0 0 32 32" fill="none" xmlns="http://www.w3.org/2000/svg">
<g id="route">
<mask id="mask0_8897_2009" style="mask-type:alpha" maskUnits="userSpaceOnUse" x="0" y="0" width="32" height="32">
<rect id="Bounding box" y="32" width="32" height="32" transform="rotate(-90 0 32)" fill="#D9D9D9"/>
</mask>
<g mask="url(#mask0_8897_2009)">
<path id="route_2" d="M28 20C28 21.4667 27.4778 22.7222 26.4333 23.7667C25.3889 24.8111 24.1333 25.3333 22.6667 25.3333H11.7667C11.4778 26.1111 10.9944 26.75 10.3167 27.25C9.63889 27.75 8.86667 28 8 28C6.88889 28 5.94444 27.6111 5.16667 26.8333C4.38889 26.0556 4 25.1111 4 24C4 22.8889 4.38889 21.9444 5.16667 21.1667C5.94444 20.3889 6.88889 20 8 20C8.86667 20 9.63889 20.25 10.3167 20.75C10.9944 21.25 11.4778 21.8889 11.7667 22.6667H22.6667C23.4 22.6667 24.0278 22.4056 24.55 21.8833C25.0722 21.3611 25.3333 20.7333 25.3333 20C25.3333 19.2667 25.0722 18.6389 24.55 18.1167C24.0278 17.5944 23.4 17.3333 22.6667 17.3333H9.33333C7.86667 17.3333 6.61111 16.8111 5.56667 15.7667C4.52222 14.7222 4 13.4667 4 12C4 10.5333 4.52222 9.27778 5.56667 8.23333C6.61111 7.18889 7.86667 6.66667 9.33333 6.66667H20.2333C20.5222 5.88889 21.0056 5.25 21.6833 4.75C22.3611 4.25 23.1333 4 24 4C25.1111 4 26.0556 4.38889 26.8333 5.16667C27.6111 5.94444 28 6.88889 28 8C28 9.11111 27.6111 10.0556 26.8333 10.8333C26.0556 11.6111 25.1111 12 24 12C23.1333 12 22.3556 11.75 21.6667 11.25C20.9778 10.75 20.5 10.1111 20.2333 9.33333H9.33333C8.6 9.33333 7.97222 9.59444 7.45 10.1167C6.92778 10.6389 6.66667 11.2667 6.66667 12C6.66667 12.7333 6.92778 13.3611 7.45 13.8833C7.97222 14.4056 8.6 14.6667 9.33333 14.6667L22.6667 14.6667C24.1333 14.6667 25.3889 15.1889 26.4333 16.2333C27.4778 17.2778 28 18.5333 28 20ZM9.33333 24C9.33333 23.6222 9.20556 23.3056 8.95 23.05C8.69444 22.7944 8.37778 22.6667 8 22.6667C7.62222 22.6667 7.30556 22.7944 7.05 23.05C6.79444 23.3056 6.66667 23.6222 6.66667 24C6.66667 24.3778 6.79444 24.6944 7.05 24.95C7.30556 25.2056 7.62222 25.3333 8 25.3333C8.37778 25.3333 8.69444 25.2056 8.95 24.95C9.20556 24.6944 9.33333 24.3778 9.33333 24ZM25.3333 8C25.3333 7.62222 25.2056 7.30555 24.95 7.05C24.6944 6.79444 24.3778 6.66667 24 6.66667C23.6222 6.66667 23.3056 6.79444 23.05 7.05C22.7944 7.30555 22.6667 7.62222 22.6667 8C22.6667 8.37778 22.7944 8.69444 23.05 8.95C23.3056 9.20555 23.6222 9.33333 24 9.33333C24.3778 9.33333 24.6944 9.20555 24.95 8.95C25.2056 8.69444 25.3333 8.37778 25.3333 8Z" fill="#637EC0"/>
</g>
</g>
</svg>
