<svg width="19" height="19" viewBox="0 0 19 19" fill="none" xmlns="http://www.w3.org/2000/svg">
<g id="route">
<mask id="mask0_9562_11876" style="mask-type:alpha" maskUnits="userSpaceOnUse" x="0" y="0" width="19" height="19">
<rect id="Bounding box" x="0.5" y="18.5" width="18" height="18" transform="rotate(-90 0.5 18.5)" fill="#D9D9D9"/>
</mask>
<g mask="url(#mask0_9562_11876)">
<path id="route_2" d="M16.25 11.75C16.25 12.575 15.9563 13.2812 15.3688 13.8688C14.7813 14.4563 14.075 14.75 13.25 14.75H7.11875C6.95625 15.1875 6.68438 15.5469 6.30313 15.8281C5.92188 16.1094 5.4875 16.25 5 16.25C4.375 16.25 3.84375 16.0313 3.40625 15.5938C2.96875 15.1562 2.75 14.625 2.75 14C2.75 13.375 2.96875 12.8438 3.40625 12.4062C3.84375 11.9688 4.375 11.75 5 11.75C5.4875 11.75 5.92188 11.8906 6.30313 12.1719C6.68438 12.4531 6.95625 12.8125 7.11875 13.25H13.25C13.6625 13.25 14.0156 13.1031 14.3094 12.8094C14.6031 12.5156 14.75 12.1625 14.75 11.75C14.75 11.3375 14.6031 10.9844 14.3094 10.6906C14.0156 10.3969 13.6625 10.25 13.25 10.25H5.75C4.925 10.25 4.21875 9.95625 3.63125 9.36875C3.04375 8.78125 2.75 8.075 2.75 7.25C2.75 6.425 3.04375 5.71875 3.63125 5.13125C4.21875 4.54375 4.925 4.25 5.75 4.25H11.8813C12.0437 3.8125 12.3156 3.45312 12.6969 3.17188C13.0781 2.89062 13.5125 2.75 14 2.75C14.625 2.75 15.1562 2.96875 15.5938 3.40625C16.0312 3.84375 16.25 4.375 16.25 5C16.25 5.625 16.0312 6.15625 15.5938 6.59375C15.1562 7.03125 14.625 7.25 14 7.25C13.5125 7.25 13.075 7.10938 12.6875 6.82812C12.3 6.54688 12.0312 6.1875 11.8813 5.75H5.75C5.3375 5.75 4.98438 5.89687 4.69063 6.19062C4.39688 6.48438 4.25 6.8375 4.25 7.25C4.25 7.6625 4.39688 8.01562 4.69063 8.30937C4.98438 8.60312 5.3375 8.75 5.75 8.75H13.25C14.075 8.75 14.7813 9.04375 15.3688 9.63125C15.9563 10.2188 16.25 10.925 16.25 11.75ZM5.75 14C5.75 13.7875 5.67813 13.6094 5.53438 13.4656C5.39062 13.3219 5.2125 13.25 5 13.25C4.7875 13.25 4.60938 13.3219 4.46563 13.4656C4.32188 13.6094 4.25 13.7875 4.25 14C4.25 14.2125 4.32188 14.3906 4.46563 14.5344C4.60938 14.6781 4.7875 14.75 5 14.75C5.2125 14.75 5.39062 14.6781 5.53438 14.5344C5.67813 14.3906 5.75 14.2125 5.75 14ZM14.75 5C14.75 4.7875 14.6781 4.60938 14.5344 4.46562C14.3906 4.32187 14.2125 4.25 14 4.25C13.7875 4.25 13.6094 4.32187 13.4656 4.46562C13.3219 4.60938 13.25 4.7875 13.25 5C13.25 5.2125 13.3219 5.39062 13.4656 5.53437C13.6094 5.67812 13.7875 5.75 14 5.75C14.2125 5.75 14.3906 5.67812 14.5344 5.53437C14.6781 5.39062 14.75 5.2125 14.75 5Z" fill="#637EC0"/>
</g>
</g>
</svg>
