<svg width="25" height="24" viewBox="0 0 25 24" fill="none" xmlns="http://www.w3.org/2000/svg">
<g id="savings">
<mask id="mask0_5449_94" style="mask-type:alpha" maskUnits="userSpaceOnUse" x="0" y="0" width="25" height="24">
<rect id="Bounding box" x="0.5" width="24" height="24" fill="#D9D9D9"/>
</mask>
<g mask="url(#mask0_5449_94)">
<path id="savings_2" d="M16.5 11C16.7833 11 17.0208 10.9042 17.2125 10.7125C17.4042 10.5208 17.5 10.2833 17.5 10C17.5 9.71667 17.4042 9.47917 17.2125 9.2875C17.0208 9.09583 16.7833 9 16.5 9C16.2167 9 15.9792 9.09583 15.7875 9.2875C15.5958 9.47917 15.5 9.71667 15.5 10C15.5 10.2833 15.5958 10.5208 15.7875 10.7125C15.9792 10.9042 16.2167 11 16.5 11ZM8.5 9H13.5V7H8.5V9ZM5 21C4.43333 19.1 3.875 17.2042 3.325 15.3125C2.775 13.4208 2.5 11.4833 2.5 9.5C2.5 7.96667 3.03333 6.66667 4.1 5.6C5.16667 4.53333 6.46667 4 8 4H13C13.4833 3.36667 14.0708 2.875 14.7625 2.525C15.4542 2.175 16.2 2 17 2C17.4167 2 17.7708 2.14583 18.0625 2.4375C18.3542 2.72917 18.5 3.08333 18.5 3.5C18.5 3.6 18.4875 3.7 18.4625 3.8C18.4375 3.9 18.4083 3.99167 18.375 4.075C18.3083 4.25833 18.2458 4.44583 18.1875 4.6375C18.1292 4.82917 18.0833 5.025 18.05 5.225L20.325 7.5H22.5V14.475L19.675 15.4L18 21H12.5V19H10.5V21H5ZM6.5 19H8.5V17H14.5V19H16.5L18.05 13.85L20.5 13.025V9.5H19.5L16 6C16 5.66667 16.0208 5.34583 16.0625 5.0375C16.1042 4.72917 16.1667 4.41667 16.25 4.1C15.7667 4.23333 15.3417 4.4625 14.975 4.7875C14.6083 5.1125 14.3417 5.51667 14.175 6H8C7.03333 6 6.20833 6.34167 5.525 7.025C4.84167 7.70833 4.5 8.53333 4.5 9.5C4.5 11.1333 4.725 12.7292 5.175 14.2875C5.625 15.8458 6.06667 17.4167 6.5 19Z" fill="#999999"/>
</g>
</g>
</svg>
