<svg width="40" height="40" viewBox="0 0 40 40" fill="none" xmlns="http://www.w3.org/2000/svg">
<rect width="40" height="40" rx="8" fill="white"/>
<g clip-path="url(#clip0_2890_449)">
<path d="M25.8333 15.0001H21.9342C21.602 14.7633 21.2287 14.5904 20.8333 14.4901V14.1667L23.775 12.7901C23.8956 12.7153 23.9951 12.611 24.0641 12.4871C24.1331 12.3631 24.1693 12.2236 24.1693 12.0817C24.1693 11.9398 24.1331 11.8003 24.0641 11.6764C23.9951 11.5524 23.8956 11.4481 23.775 11.3734L21.1083 10.1234C20.9001 10.0261 20.6707 9.98299 20.4414 9.99805C20.2121 10.0131 19.9903 10.0859 19.7966 10.2096C19.6029 10.3333 19.4436 10.5039 19.3335 10.7056C19.2234 10.9073 19.166 11.1336 19.1667 11.3634V14.4901C18.7715 14.5902 18.3985 14.7632 18.0667 15.0001H14.1667C13.062 15.0014 12.003 15.4408 11.2218 16.2219C10.4407 17.003 10.0013 18.0621 10 19.1667L10 27.5001C10 28.1631 10.2634 28.799 10.7322 29.2678C11.2011 29.7367 11.837 30.0001 12.5 30.0001H27.5C28.163 30.0001 28.7989 29.7367 29.2678 29.2678C29.7366 28.799 30 28.1631 30 27.5001V19.1667C29.9987 18.0621 29.5593 17.003 28.7782 16.2219C27.997 15.4408 26.938 15.0014 25.8333 15.0001ZM28.18 18.3334H26.3808C25.7182 18.3317 25.0829 18.0685 24.6133 17.6009L23.6783 16.6667H25.8333C26.3486 16.6689 26.8505 16.8301 27.2706 17.1285C27.6906 17.4268 28.0083 17.8476 28.18 18.3334ZM14.1667 16.6667H16.3217L15.3867 17.6009C14.9171 18.0685 14.2818 18.3317 13.6192 18.3334H11.82C11.9917 17.8476 12.3094 17.4268 12.7294 17.1285C13.1495 16.8301 13.6514 16.6689 14.1667 16.6667ZM20.8333 28.3334H19.1667V25.8334C19.1667 25.6124 19.2545 25.4004 19.4107 25.2441C19.567 25.0879 19.779 25.0001 20 25.0001C20.221 25.0001 20.433 25.0879 20.5893 25.2441C20.7455 25.4004 20.8333 25.6124 20.8333 25.8334V28.3334ZM27.5 28.3334H22.5V25.8334C22.5 25.1703 22.2366 24.5345 21.7678 24.0656C21.2989 23.5968 20.663 23.3334 20 23.3334C19.337 23.3334 18.7011 23.5968 18.2322 24.0656C17.7634 24.5345 17.5 25.1703 17.5 25.8334V28.3334H12.5C12.279 28.3334 12.067 28.2456 11.9107 28.0893C11.7545 27.933 11.6667 27.7211 11.6667 27.5001V20.0001H13.6192C14.1665 20.0014 14.7087 19.8942 15.2143 19.6846C15.72 19.4751 16.1791 19.1673 16.565 18.7792L18.8217 16.5234C19.1342 16.2109 19.5581 16.0354 20 16.0354C20.4419 16.0354 20.8658 16.2109 21.1783 16.5234L23.435 18.7792C23.8209 19.1673 24.28 19.4751 24.7857 19.6846C25.2913 19.8942 25.8335 20.0014 26.3808 20.0001H28.3333V27.5001C28.3333 27.7211 28.2455 27.933 28.0893 28.0893C27.933 28.2456 27.721 28.3334 27.5 28.3334ZM15.8333 22.5001C15.8333 22.7211 15.7455 22.933 15.5893 23.0893C15.433 23.2456 15.221 23.3334 15 23.3334H14.1667C13.9457 23.3334 13.7337 23.2456 13.5774 23.0893C13.4211 22.933 13.3333 22.7211 13.3333 22.5001C13.3333 22.279 13.4211 22.0671 13.5774 21.9108C13.7337 21.7545 13.9457 21.6667 14.1667 21.6667H15C15.221 21.6667 15.433 21.7545 15.5893 21.9108C15.7455 22.0671 15.8333 22.279 15.8333 22.5001ZM15.8333 25.8334C15.8333 26.0544 15.7455 26.2664 15.5893 26.4226C15.433 26.5789 15.221 26.6667 15 26.6667H14.1667C13.9457 26.6667 13.7337 26.5789 13.5774 26.4226C13.4211 26.2664 13.3333 26.0544 13.3333 25.8334C13.3333 25.6124 13.4211 25.4004 13.5774 25.2441C13.7337 25.0879 13.9457 25.0001 14.1667 25.0001H15C15.221 25.0001 15.433 25.0879 15.5893 25.2441C15.7455 25.4004 15.8333 25.6124 15.8333 25.8334ZM26.6667 22.5001C26.6667 22.7211 26.5789 22.933 26.4226 23.0893C26.2663 23.2456 26.0543 23.3334 25.8333 23.3334H25C24.779 23.3334 24.567 23.2456 24.4107 23.0893C24.2545 22.933 24.1667 22.7211 24.1667 22.5001C24.1667 22.279 24.2545 22.0671 24.4107 21.9108C24.567 21.7545 24.779 21.6667 25 21.6667H25.8333C26.0543 21.6667 26.2663 21.7545 26.4226 21.9108C26.5789 22.0671 26.6667 22.279 26.6667 22.5001ZM26.6667 25.8334C26.6667 26.0544 26.5789 26.2664 26.4226 26.4226C26.2663 26.5789 26.0543 26.6667 25.8333 26.6667H25C24.779 26.6667 24.567 26.5789 24.4107 26.4226C24.2545 26.2664 24.1667 26.0544 24.1667 25.8334C24.1667 25.6124 24.2545 25.4004 24.4107 25.2441C24.567 25.0879 24.779 25.0001 25 25.0001H25.8333C26.0543 25.0001 26.2663 25.0879 26.4226 25.2441C26.5789 25.4004 26.6667 25.6124 26.6667 25.8334ZM21.6667 20.0001C21.6667 20.3297 21.5689 20.6519 21.3858 20.926C21.2026 21.2001 20.9423 21.4137 20.6378 21.5399C20.3333 21.666 19.9982 21.699 19.6748 21.6347C19.3515 21.5704 19.0546 21.4117 18.8215 21.1786C18.5884 20.9455 18.4297 20.6485 18.3654 20.3252C18.301 20.0019 18.3341 19.6668 18.4602 19.3623C18.5863 19.0577 18.8 18.7974 19.074 18.6143C19.3481 18.4311 19.6704 18.3334 20 18.3334C20.442 18.3334 20.8659 18.509 21.1785 18.8215C21.4911 19.1341 21.6667 19.558 21.6667 20.0001Z" fill="#008CDB"/>
</g>
<defs>
<clipPath id="clip0_2890_449">
<rect width="20" height="20" fill="white" transform="translate(10 10)"/>
</clipPath>
</defs>
</svg>
