<svg width="20" height="21" viewBox="0 0 20 21" fill="none" xmlns="http://www.w3.org/2000/svg">
<path id="search_hands_free" d="M10 20.75C8.61667 20.75 7.31667 20.4875 6.1 19.9625C4.88333 19.4375 3.825 18.725 2.925 17.825C2.025 16.925 1.3125 15.8667 0.7875 14.65C0.2625 13.4333 0 12.1333 0 10.75C0 9.36667 0.2625 8.06667 0.7875 6.85C1.3125 5.63333 2.025 4.575 2.925 3.675C3.825 2.775 4.88333 2.0625 6.1 1.5375C7.31667 1.0125 8.61667 0.75 10 0.75C11.3833 0.75 12.6833 1.0125 13.9 1.5375C15.1167 2.0625 16.175 2.775 17.075 3.675C17.975 4.575 18.6875 5.63333 19.2125 6.85C19.7375 8.06667 20 9.36667 20 10.75C20 12.1333 19.7375 13.4333 19.2125 14.65C18.6875 15.8667 17.975 16.925 17.075 17.825C16.175 18.725 15.1167 19.4375 13.9 19.9625C12.6833 20.4875 11.3833 20.75 10 20.75ZM9 18.65V15.65C8 15.45 7.15 15 6.45 14.3C5.75 13.6 5.3 12.75 5.1 11.75H2.1C2.3 13.5667 3.04583 15.1083 4.3375 16.375C5.62917 17.6417 7.18333 18.4 9 18.65ZM11 18.65C12.8167 18.45 14.3708 17.7042 15.6625 16.4125C16.9542 15.1208 17.7 13.5667 17.9 11.75H14.9C14.7 12.75 14.25 13.6 13.55 14.3C12.85 15 12 15.45 11 15.65V18.65ZM2.1 9.75H5L7.425 7.325C7.60833 7.14167 7.82083 7 8.0625 6.9C8.30417 6.8 8.55833 6.75 8.825 6.75H11.175C11.4417 6.75 11.6958 6.8 11.9375 6.9C12.1792 7 12.3917 7.14167 12.575 7.325L15 9.75H17.9C17.65 7.73333 16.775 6.0625 15.275 4.7375C13.775 3.4125 12.0167 2.75 10 2.75C7.98333 2.75 6.225 3.4125 4.725 4.7375C3.225 6.0625 2.35 7.73333 2.1 9.75Z" fill="#81DC66"/>
</svg>
