<svg width="36" height="36" viewBox="0 0 36 36" fill="none" xmlns="http://www.w3.org/2000/svg">
<circle cx="18" cy="18" r="18" fill="#E0F0FF"/>
<path d="M29.4024 24.2698C29.3863 24.2921 29.3696 24.3138 29.3551 24.3371C29.2233 24.5513 29.0291 24.6448 28.8228 24.5941C28.6002 24.5385 28.4667 24.3716 28.4573 24.1079C28.4439 23.733 28.4539 23.3563 28.43 22.9814C28.3143 21.1372 27.3908 19.7837 25.8504 18.8286C25.0204 18.3155 24.0703 18.0293 23.095 17.9985C22.9893 17.9941 22.883 17.9824 22.7773 17.9724C22.4853 17.9451 22.2978 17.7627 22.2956 17.5045C22.2934 17.2464 22.4814 17.0511 22.7696 17.0317C23.204 17.0011 23.6246 16.9254 24.0201 16.7313C25.1394 16.1811 25.758 14.9783 25.5689 13.7127C25.3926 12.535 24.3862 11.5481 23.1818 11.3762C23.0344 11.3551 22.8842 11.3551 22.7367 11.3334C22.4541 11.2928 22.275 11.0836 22.2967 10.8327C22.3184 10.5818 22.5192 10.396 22.8085 10.396C23.4431 10.3881 24.0677 10.5549 24.6137 10.8783C26.0184 11.7184 26.6771 12.9728 26.5308 14.6012C26.4362 15.6581 25.9238 16.5188 25.0844 17.1758L24.873 17.3427C24.9759 17.3827 25.0554 17.415 25.1355 17.4445C26.7906 18.0564 28.0417 19.1217 28.8272 20.7122C29.1086 21.2851 29.2885 21.9025 29.359 22.5369C29.3692 22.5912 29.3837 22.6446 29.4024 22.6966V24.2698Z" fill="#2597D7"/>
<path d="M13.7648 17.3254C12.2956 16.3796 11.4539 15.0768 11.4032 13.3338C11.3643 11.992 11.8483 10.8304 12.794 9.88472C14.6515 8.02276 17.7257 8.04334 19.5164 9.91755C20.5734 11.0263 21.0368 12.3536 20.8316 13.8673C20.6274 15.3722 19.8118 16.5087 18.5073 17.3198C18.8861 17.4555 19.2433 17.5646 19.586 17.7092C21.9609 18.7145 23.6209 20.3889 24.3897 22.8829C24.585 23.5165 24.654 24.1724 24.6723 24.8327C24.6823 25.201 24.6779 25.5704 24.6723 25.9392C24.6684 26.2791 24.4737 26.5006 24.1911 26.5C23.9085 26.4994 23.7188 26.2803 23.7093 25.9381C23.6932 25.3356 23.7194 24.7293 23.657 24.1318C23.5052 22.6854 22.8832 21.4482 21.8919 20.3978C20.7756 19.1994 19.2952 18.4026 17.6801 18.1309C15.111 17.6786 12.7901 18.2472 10.8119 19.9795C9.5446 21.0921 8.79025 22.5057 8.60166 24.1891C8.53657 24.7715 8.56884 25.3651 8.55437 25.9537C8.54714 26.2625 8.41641 26.4394 8.17052 26.4833C7.8868 26.5334 7.62812 26.357 7.61421 26.0705C7.53855 24.4511 7.66984 22.8729 8.47983 21.4126C9.28326 19.9386 10.5244 18.7504 12.0319 18.0118C12.5225 17.7671 13.0538 17.6018 13.5662 17.3999C13.6235 17.3793 13.6808 17.3576 13.7648 17.3254ZM12.3517 13.2276C12.3317 15.2959 14.0463 17.0194 16.1346 17.0277C18.193 17.0361 19.8947 15.3516 19.9175 13.2788C19.942 11.1976 18.2653 9.47472 16.1947 9.45358C15.6938 9.44607 15.1963 9.53806 14.7312 9.7242C14.2661 9.91035 13.8425 10.187 13.485 10.538C13.1276 10.889 12.8434 11.3075 12.6488 11.7692C12.4543 12.2309 12.3533 12.7266 12.3517 13.2276Z" fill="#2597D7"/>
</svg>
