<svg width="36" height="36" viewBox="0 0 36 36" fill="none" xmlns="http://www.w3.org/2000/svg">
<circle cx="18" cy="18" r="18" fill="#E0F0FF"/>
<path d="M18.6352 7C18.9822 7.09319 19.3413 7.15568 19.6767 7.28506C22.5969 8.4187 23.2103 12.2735 20.7956 14.2711C20.7495 14.3089 20.7068 14.3511 20.6684 14.3868C21.0478 14.5742 21.4424 14.7217 21.7834 14.9497C22.2861 15.2858 22.7559 15.6739 23.229 16.0527C23.3337 16.1366 23.4066 16.1673 23.5343 16.1146C23.849 15.9853 24.1691 15.8674 24.4898 15.7517C24.9684 15.5791 25.3669 15.8575 25.3669 16.3657C25.3669 17.0783 25.3669 17.7871 25.3669 18.5069C26.4452 18.8451 27.0723 19.5512 26.9944 20.7068C26.9276 21.6973 26.3158 22.2927 25.3669 22.5706C25.3669 23.3223 25.3669 24.0739 25.3669 24.8253C25.3669 25.2391 25.2572 25.4047 24.8697 25.55C22.7438 26.347 20.6182 27.1439 18.4927 27.9406C18.2953 28.0198 18.075 28.0198 17.8776 27.9406C15.7459 27.1366 13.6129 26.3368 11.4787 25.5412C11.1344 25.4124 11.0056 25.2265 11.005 24.8609C11.005 24.1022 11.005 23.3435 11.005 22.5755C9.92841 22.2395 9.30019 21.5329 9.37749 20.3757C9.44382 19.384 10.055 18.7892 11.005 18.5118C11.005 17.8094 11.005 17.1063 11.005 16.4024C11.005 15.8384 11.3915 15.5708 11.9216 15.7665C12.2412 15.8844 12.5591 16.0088 12.882 16.1179C12.9176 16.1284 12.955 16.1308 12.9916 16.125C13.0282 16.1192 13.063 16.1054 13.0936 16.0845C13.8267 15.3548 14.7067 14.7893 15.675 14.4257C15.686 14.4213 15.6942 14.4109 15.6832 14.4197C15.3993 14.1034 15.0868 13.8128 14.8418 13.4735C13.0481 10.9902 14.5814 7.45006 17.6205 7.03837C17.6595 7.02947 17.6976 7.01662 17.734 7H18.6352ZM18.7997 26.4797C18.8242 26.4808 18.8489 26.4792 18.8731 26.4747C20.5907 25.8323 22.3071 25.1874 24.0222 24.5402C24.0532 24.5211 24.0793 24.495 24.0984 24.4639C24.1174 24.4329 24.1289 24.3978 24.1318 24.3615C24.1406 23.8133 24.1346 23.2679 24.139 22.7213C24.139 22.615 24.1055 22.5728 24.003 22.535C23.554 22.3705 23.3172 22.012 23.3167 21.5257C23.3167 20.8767 23.3167 20.2275 23.3167 19.5781C23.3167 19.0622 23.5447 18.7289 24.0195 18.5365C24.0655 18.5179 24.1291 18.4647 24.1318 18.4269C24.14 18.0289 24.1368 17.6304 24.1368 17.2143C24.054 17.2439 24.0036 17.2609 23.9531 17.2801C22.3086 17.8973 20.6613 18.5173 19.0123 19.128C18.855 19.1867 18.7964 19.253 18.7969 19.4279C18.804 21.7105 18.8018 23.9937 18.8018 26.2763L18.7997 26.4797ZM17.5608 26.4956C17.5651 26.4457 17.5695 26.4188 17.5695 26.3914C17.5695 24.0474 17.5708 21.703 17.5734 19.3582C17.5734 19.2278 17.5185 19.185 17.4117 19.1455C15.7452 18.5221 14.0791 17.8975 12.4133 17.2718C12.3585 17.2521 12.3037 17.2384 12.2341 17.217C12.2341 17.6221 12.2297 18.0048 12.2396 18.3869C12.2467 18.4186 12.261 18.4484 12.2814 18.4738C12.3019 18.4991 12.3279 18.5195 12.3574 18.5332C12.8113 18.7212 13.0536 19.0622 13.0542 19.5413C13.0542 20.2039 13.0542 20.8668 13.0542 21.5301C13.0542 22.0125 12.8157 22.3689 12.3623 22.535C12.2527 22.575 12.2319 22.6243 12.2324 22.7257C12.2357 23.2657 12.2385 23.8056 12.2324 24.3451C12.2324 24.4722 12.2807 24.521 12.3898 24.561C13.2268 24.8713 14.0617 25.1871 14.8977 25.5001C15.7764 25.8306 16.6568 26.1584 17.5613 26.4956H17.5608ZM18.1879 8.23067C17.6196 8.23002 17.0639 8.39791 16.591 8.71311C16.1182 9.02831 15.7494 9.47666 15.5314 10.0015C15.3134 10.5262 15.2559 11.1039 15.3662 11.6614C15.4765 12.2188 15.7497 12.7311 16.1511 13.1333C16.5526 13.5355 17.0643 13.8096 17.6215 13.921C18.1788 14.0324 18.7566 13.976 19.2818 13.759C19.807 13.5419 20.256 13.174 20.5721 12.7018C20.8882 12.2296 21.0572 11.6742 21.0576 11.1059C21.0536 10.3455 20.7501 9.61736 20.213 9.07917C19.6758 8.54099 18.9482 8.23614 18.1879 8.23067ZM22.0471 16.6683C19.8779 14.6674 16.2983 14.7979 14.332 16.6683C15.5928 17.1416 16.8498 17.6117 18.1029 18.0788C18.1801 18.0971 18.2611 18.0898 18.3337 18.0579C19.043 17.7965 19.7502 17.5289 20.4585 17.2636L22.0471 16.6683ZM11.8158 19.725C11.6564 19.7171 11.4966 19.718 11.3372 19.7277C11.1357 19.7459 10.948 19.8382 10.8107 19.9869C10.6734 20.1356 10.5963 20.33 10.5942 20.5324C10.5922 20.7348 10.6654 20.9307 10.7996 21.0821C10.9339 21.2336 11.1196 21.3298 11.3208 21.352C11.4798 21.3728 11.6442 21.3553 11.8142 21.3553L11.8158 19.725ZM24.5556 21.3591C24.72 21.3591 24.8713 21.3712 25.0188 21.3591C25.2182 21.3425 25.4048 21.2543 25.5442 21.1108C25.6837 20.9673 25.7665 20.7783 25.7775 20.5785C25.786 20.3813 25.7223 20.1878 25.5982 20.0343C25.4742 19.8807 25.2983 19.7778 25.1038 19.7447C24.9272 19.7113 24.742 19.7228 24.5517 19.714L24.5556 21.3591Z" fill="#2597D7"/>
</svg>
