<svg width="143" height="107" viewBox="0 0 143 107" fill="none" xmlns="http://www.w3.org/2000/svg">
<path d="M55.099 59.79C55.099 59.79 33.9004 48.9554 31.0288 43.5743C28.1572 38.1932 16.1819 20.0835 16.1819 20.0835C16.1819 20.0835 10.0548 20.8584 8.43612 23.6033C10.4242 31.0702 16.5295 51.7509 24.4201 57.8491C32.3107 63.9472 53.0892 76.5127 53.0892 76.5127L55.099 59.79Z" fill="#98AAD7"/>
<path d="M10.62 30.3569C13.622 29.524 17.4098 27.9126 20.1908 26.6379C18.9886 25.0337 18.1629 23.8025 17.9819 23.2267C17.1345 20.5362 22.4758 10.0166 21.6031 9.15471C20.7304 8.29286 17.4677 13.7681 16.9281 13.2358C16.3886 12.7035 15.6245 0.681089 13.8392 0.717301C12.054 0.753513 13.8392 10.9291 12.7239 10.9544C11.6086 10.9798 9.64227 -1.16211 7.88236 0.0908283C6.12245 1.34377 10.3411 10.7299 9.16063 11.226C7.98012 11.7221 4.58706 2.83209 3.33413 2.85744C2.08119 2.88278 3.02269 4.85272 3.92799 7.20288C4.83329 9.55305 6.35058 12.7687 5.62633 12.7832C4.90209 12.7976 1.35331 7.1884 0.107619 7.61932C-1.13808 8.05024 8.82387 24.2769 9.68934 27.8546C9.94771 28.7071 10.2585 29.5428 10.62 30.3569Z" fill="#98AAD7"/>
<path d="M66.303 63.4399C78.778 53.3403 111.463 67.3037 116.33 73.8219C121.121 80.2314 130.84 147.872 123.685 152.551C116.529 157.229 94.3891 166.702 85.1803 158.344C75.9716 149.987 66.303 63.4399 66.303 63.4399Z" fill="#1F345A"/>
<path d="M126.73 99.0583C139.513 119.699 146.922 133.88 139.767 142.846C131.974 152.645 115.468 150.711 107.806 159.04C100.621 156.404 99.1729 149.317 99.1729 149.317L106.578 146.909C121.302 140.518 127.509 136.733 125.47 129.759C123.431 122.784 116.236 113.464 116.236 113.464C119.553 98.421 126.73 99.0583 126.73 99.0583Z" fill="#7A92CC"/>
<path d="M134.386 102.748C134.386 102.748 124.608 117.233 116.935 117.479C111.909 109.911 109.667 105.565 109.62 106.395C109.566 107.333 109.573 132.044 108.269 145.536C98.1662 151.385 50.6524 147.528 50.6234 141.343C50.5981 136.635 62.0628 89.2954 55.465 84.1279C53.0678 82.2558 32.6731 71.3161 32.6731 71.3161C32.6731 71.3161 41.1793 54.5825 46.4156 49.3933C46.4156 49.3933 56.6346 54.7382 66.3938 58.6672C79.202 63.8166 89.986 65.2433 97.1125 68.5495C122.218 80.217 124.101 85.8226 134.386 102.748Z" fill="#2760EA"/>
<path d="M98.1948 69.0673C91.5354 88.9586 100.056 131.319 109.471 141.875C112.187 135.303 101.725 108.658 109.471 74.8577C109.674 73.1448 98.8684 67.2314 98.1948 69.0673Z" fill="#294577"/>
<path d="M79.6398 63.1505C70.0147 73.6085 55.5769 112.464 55.2727 114.398C55.6964 80.4417 68.6711 64.3563 70.8149 60.4128C72.2344 59.4568 79.81 62.1257 79.6398 63.1505Z" fill="#294577"/>
<path d="M77.9602 53.2463V70.9902C77.9602 70.9902 84.4784 77.9828 92.8904 73.1412L96.7724 50.295L77.9602 53.2463Z" fill="#98AAD7"/>
<g style="mix-blend-mode:multiply" opacity="0.68">
<path d="M77.9599 62.1941C83.3301 63.5484 89.9678 61.2634 95.6784 56.7369L96.7648 50.3057L77.9526 53.2461L77.9599 62.1941Z" fill="#C8D2EA"/>
</g>
<path d="M78.4559 22.4552C78.4559 22.4552 60.1362 44.4395 68.4831 55.2271C76.83 66.0147 95.758 58.6853 105.119 45.0479C114.48 31.4104 81.9142 12.2796 78.4559 22.4552Z" fill="#98AAD7"/>
<path d="M96.3659 30.3964C96.3659 30.3964 103.083 30.5992 100.436 36.9146C97.789 43.23 93.0163 45.3556 95.5511 47.8977C97.3038 49.6467 96.3043 53.2245 95.5077 55.2886C95.0919 56.3527 95.0435 57.5253 95.3701 58.6201L95.4135 58.7686C95.7729 59.9476 96.526 60.9676 97.5468 61.6583C98.5677 62.349 99.7946 62.6685 101.023 62.5636C107.179 62.0313 117.499 58.9424 116.923 44.0302C116.923 44.0302 122.058 34.4666 116.949 27.1373C111.839 19.808 107.968 20.42 107.968 20.42C107.968 20.42 106.136 13.4999 100.436 11.8739C94.7363 10.248 78.0462 4.34183 76.2175 13.4999C74.3888 22.6579 82.5148 29.3752 96.3659 30.3964Z" fill="#011037"/>
<path d="M94.5591 41.8938C95.0371 41.6512 101.802 38.5116 102.805 42.3537C103.728 45.917 102.443 51.4357 97.5865 51.4357C92.7304 51.4357 88.4538 45.0226 94.5591 41.8938Z" fill="#98AAD7"/>
</svg>
