<svg width="40" height="40" viewBox="0 0 40 40" fill="none" xmlns="http://www.w3.org/2000/svg">
<rect width="40" height="40" rx="13.3333" fill="#F6F8FE"/>
<path d="M15.821 29.9995V28.5947H11.1933V27.2711H12.2855V11.4092H15.8181V10L27.7116 11.487V27.2667H28.8067V28.5923C28.7172 28.5923 28.6351 28.5957 28.5529 28.5923C27.3706 28.5331 26.205 28.6959 25.0389 28.8515C23.9505 28.9982 22.8598 29.1215 21.7704 29.2575C20.6811 29.3935 19.5791 29.5353 18.4829 29.6728C17.7096 29.7706 16.9358 29.8635 16.162 29.9604C16.1122 29.9702 16.0632 29.9835 16.0152 30L15.821 29.9995ZM26.3694 12.6585L17.1608 11.5066V28.4969L26.3703 27.3445L26.3694 12.6585ZM15.8039 27.2593V12.749H13.6346V27.2593H15.8039Z" fill="#7A92CC"/>
<path d="M19.7655 21.3212H18.4663V18.6876H19.7655V21.3212Z" fill="#7A92CC"/>
</svg>
