<svg width="40" height="40" viewBox="0 0 40 40" fill="none" xmlns="http://www.w3.org/2000/svg">
<rect width="40" height="40" rx="13.3333" fill="#F6F8FE"/>
<path d="M15.0617 28.8889C14.5185 28.8889 14.0535 28.6955 13.6667 28.3086C13.2798 27.9218 13.0864 27.4568 13.0864 26.9136V13.0864C13.0864 12.5432 13.2798 12.0782 13.6667 11.6914C14.0535 11.3045 14.5185 11.1111 15.0617 11.1111H20.9877C21.2675 11.1111 21.5021 11.2058 21.6914 11.3951C21.8807 11.5844 21.9753 11.8189 21.9753 12.0988C21.9753 12.3786 21.8807 12.6132 21.6914 12.8025C21.5021 12.9918 21.2675 13.0864 20.9877 13.0864H15.0617V26.9136H20.9877C21.2675 26.9136 21.5021 27.0082 21.6914 27.1975C21.8807 27.3868 21.9753 27.6214 21.9753 27.9012C21.9753 28.1811 21.8807 28.4156 21.6914 28.6049C21.5021 28.7942 21.2675 28.8889 20.9877 28.8889H15.0617ZM27.0864 20.9877H20C19.7202 20.9877 19.4856 20.893 19.2963 20.7037C19.107 20.5144 19.0124 20.2798 19.0124 20C19.0124 19.7202 19.107 19.4856 19.2963 19.2963C19.4856 19.107 19.7202 19.0123 20 19.0123H27.0864L25.2346 17.1605C25.0535 16.9794 24.963 16.7572 24.963 16.4938C24.963 16.2305 25.0535 16 25.2346 15.8025C25.4156 15.6049 25.6461 15.5021 25.9259 15.4938C26.2058 15.4856 26.4445 15.5803 26.642 15.7778L30.1728 19.3086C30.3704 19.5062 30.4691 19.7366 30.4691 20C30.4691 20.2634 30.3704 20.4938 30.1728 20.6914L26.642 24.2222C26.4445 24.4198 26.2099 24.5144 25.9383 24.5062C25.6667 24.4979 25.4321 24.3951 25.2346 24.1975C25.0535 24 24.9671 23.7654 24.9753 23.4938C24.9835 23.2222 25.0782 22.9959 25.2593 22.8148L27.0864 20.9877Z" fill="#7A92CC"/>
</svg>
