<svg width="41" height="40" viewBox="0 0 41 40" fill="none" xmlns="http://www.w3.org/2000/svg">
<rect x="0.5" width="40" height="40" rx="13.3333" fill="#F6F8FE"/>
<mask id="mask0_4210_16100" style="mask-type:alpha" maskUnits="userSpaceOnUse" x="8" y="8" width="25" height="24">
<rect x="8.5" y="8" width="24" height="24" fill="#D9D9D9"/>
</mask>
<g mask="url(#mask0_4210_16100)">
<path d="M16.5 25H21.5C21.7833 25 22.0208 24.9042 22.2125 24.7125C22.4042 24.5208 22.5 24.2833 22.5 24C22.5 23.7167 22.4042 23.4792 22.2125 23.2875C22.0208 23.0958 21.7833 23 21.5 23H16.5C16.2167 23 15.9792 23.0958 15.7875 23.2875C15.5958 23.4792 15.5 23.7167 15.5 24C15.5 24.2833 15.5958 24.5208 15.7875 24.7125C15.9792 24.9042 16.2167 25 16.5 25ZM16.5 21H24.5C24.7833 21 25.0208 20.9042 25.2125 20.7125C25.4042 20.5208 25.5 20.2833 25.5 20C25.5 19.7167 25.4042 19.4792 25.2125 19.2875C25.0208 19.0958 24.7833 19 24.5 19H16.5C16.2167 19 15.9792 19.0958 15.7875 19.2875C15.5958 19.4792 15.5 19.7167 15.5 20C15.5 20.2833 15.5958 20.5208 15.7875 20.7125C15.9792 20.9042 16.2167 21 16.5 21ZM16.5 17H24.5C24.7833 17 25.0208 16.9042 25.2125 16.7125C25.4042 16.5208 25.5 16.2833 25.5 16C25.5 15.7167 25.4042 15.4792 25.2125 15.2875C25.0208 15.0958 24.7833 15 24.5 15H16.5C16.2167 15 15.9792 15.0958 15.7875 15.2875C15.5958 15.4792 15.5 15.7167 15.5 16C15.5 16.2833 15.5958 16.5208 15.7875 16.7125C15.9792 16.9042 16.2167 17 16.5 17ZM13.5 29C12.95 29 12.4792 28.8042 12.0875 28.4125C11.6958 28.0208 11.5 27.55 11.5 27V13C11.5 12.45 11.6958 11.9792 12.0875 11.5875C12.4792 11.1958 12.95 11 13.5 11H27.5C28.05 11 28.5208 11.1958 28.9125 11.5875C29.3042 11.9792 29.5 12.45 29.5 13V27C29.5 27.55 29.3042 28.0208 28.9125 28.4125C28.5208 28.8042 28.05 29 27.5 29H13.5ZM13.5 27H27.5V13H13.5V27Z" fill="#7A92CC"/>
</g>
</svg>
