<svg width="36" height="36" viewBox="0 0 36 36" fill="none" xmlns="http://www.w3.org/2000/svg">
<circle cx="18" cy="18" r="18" fill="#E0F0FF"/>
<path d="M18.2235 9C18.4704 9.11607 18.5523 9.31047 18.5505 9.58036C18.5417 10.9439 18.5466 12.3079 18.5466 13.6729V13.8891C18.6049 13.8521 18.6437 13.832 18.6772 13.8055C19.1252 13.4478 19.568 13.083 20.0245 12.7362C20.136 12.6556 20.2695 12.6113 20.407 12.6092C20.5883 12.6092 20.7245 12.7348 20.7746 12.9129C20.8289 13.1017 20.7852 13.2742 20.6268 13.403C20.3041 13.6645 19.9802 13.9248 19.6551 14.1837C19.2532 14.5055 18.8511 14.827 18.4489 15.1483C18.1893 15.3557 18.0037 15.354 17.7433 15.1444L15.7006 13.5109C15.6731 13.4891 15.6459 13.4668 15.6187 13.4446C15.3788 13.246 15.3301 12.9775 15.496 12.77C15.6667 12.5559 15.9338 12.5404 16.179 12.7348C16.5233 13.0071 16.8648 13.2827 17.2078 13.5564C17.3394 13.6623 17.4713 13.7664 17.6431 13.9029V13.6679C17.6431 12.3096 17.6466 10.9513 17.6403 9.59377C17.6403 9.32105 17.7183 9.11431 17.9793 9.00141L18.2235 9Z" fill="#2597D7"/>
<path d="M23.4884 16.1916V14.4057C23.0862 14.4057 22.69 14.4057 22.2941 14.4057C22.2124 14.408 22.1307 14.4014 22.0504 14.3859C21.8097 14.3309 21.6796 14.139 21.7028 13.892C21.714 13.7832 21.7657 13.6826 21.8477 13.6102C21.9297 13.5379 22.0359 13.499 22.1453 13.5015C22.7253 13.4979 23.3053 13.4993 23.8849 13.5015C24.2243 13.5015 24.4011 13.6779 24.4025 14.0233C24.4046 14.6791 24.4025 15.3353 24.4025 15.9912V16.1972C24.7775 16.1972 25.1342 16.2117 25.4888 16.1937C26.0532 16.1651 26.2057 16.3503 26.2039 16.912C26.1933 20.075 26.1933 23.2385 26.2039 26.4024C26.2039 26.745 26.055 27.0022 25.613 27C21.0265 26.9909 16.4401 26.9889 11.8537 26.994C10.8976 26.993 10.1789 26.389 10.0163 25.4463C10.0031 25.3537 9.99793 25.2601 10.0007 25.1665C10.0007 21.8864 10.0007 18.6063 10.0007 15.3262C10.0007 14.2886 10.7854 13.5022 11.8191 13.4997C12.5395 13.4978 13.2599 13.4978 13.9804 13.4997C14.2979 13.4997 14.4958 13.6719 14.4972 13.9449C14.4986 14.218 14.2986 14.4036 13.9885 14.4036C13.2504 14.4071 12.5123 14.4015 11.7743 14.4071C11.3396 14.4103 10.9646 14.7454 10.9127 15.1603C10.8559 15.6158 11.1142 16.0304 11.5411 16.1524C11.6483 16.1826 11.7592 16.1977 11.8706 16.1972C15.7013 16.1993 19.5319 16.1999 23.3624 16.199C23.3974 16.1972 23.4323 16.1944 23.4884 16.1916ZM10.9145 16.858C10.911 16.9325 10.9074 16.973 10.9074 17.014C10.9074 19.7315 10.9074 22.449 10.9074 25.1665C10.9053 25.2484 10.9134 25.3301 10.9314 25.41C11.0436 25.8488 11.3823 26.087 11.8907 26.087H25.2771V23.4029H22.2578C21.8644 23.4029 21.6979 23.2399 21.6976 22.8525C21.6961 22.0149 21.6961 21.1774 21.6976 20.3398C21.6976 19.9518 21.8623 19.7926 22.2578 19.7923H25.2771V17.1032H25.0195C20.7499 17.1032 16.4803 17.1032 12.2107 17.1032C11.7715 17.1046 11.3333 17.1064 10.9145 16.858ZM22.6124 22.4852H25.2788V20.7156H22.6124V22.4852Z" fill="#2597D7"/>
</svg>
