<svg width="36" height="36" viewBox="0 0 36 36" fill="none" xmlns="http://www.w3.org/2000/svg">
<circle cx="18" cy="18" r="18" fill="#E0F0FF"/>
<g clip-path="url(#clip0_247_26256)">
<path d="M23.9202 11.6256C24.1703 11.65 24.3991 11.6535 24.6198 11.6972C25.5892 11.8875 26.3233 12.7187 26.3578 13.7052C26.3862 14.5172 26.369 15.3256 26.3695 16.1355C26.3695 17.2879 26.372 18.4399 26.3695 19.5918C26.3665 19.6565 26.3779 19.7211 26.4029 19.7809C26.4279 19.8406 26.4659 19.8941 26.5141 19.9374C27.8422 21.2568 28.3201 22.8396 27.79 24.6406C27.2674 26.4167 26.0377 27.5123 24.2317 27.9005C22.003 28.3791 19.7455 27.0886 18.9556 24.9258C18.8952 24.7598 18.8211 24.7106 18.6471 24.7111C16.1914 24.7175 13.7356 24.7187 11.2799 24.7147C10.1755 24.7137 9.30896 24.0453 9.06088 23.006C9.02123 22.8335 9.00182 22.6569 9.00304 22.4798C9.00101 18.7323 9 14.9847 9 11.2369C9 9.96824 9.9639 9.00406 11.2322 9.00406C14.7158 9.00135 18.1983 9 21.6799 9C22.9481 9 23.9121 9.96672 23.9202 11.2328C23.9207 11.3622 23.9202 11.4866 23.9202 11.6256ZM18.7146 24.0874C18.5046 22.1454 19.1204 20.5651 20.7322 19.4766C22.3439 18.3881 24.0369 18.4196 25.7546 19.3325V19.1732C25.7546 17.4004 25.7546 15.6277 25.7546 13.8549C25.7563 13.7792 25.7514 13.7035 25.7399 13.6286C25.5892 12.7857 24.9683 12.265 24.1064 12.2645H11.1744C11.1048 12.2677 11.0352 12.2664 10.9658 12.2605C10.8889 12.2527 10.818 12.2153 10.7682 12.156C10.7185 12.0968 10.6938 12.0205 10.6995 11.9433C10.7091 11.7763 10.801 11.6728 10.9684 11.653C11.0502 11.646 11.1324 11.6438 11.2144 11.6464H23.2789C23.3094 11.1999 23.3134 10.7802 23.076 10.3986C22.7356 9.84645 22.2293 9.61454 21.5921 9.61556C19.2625 9.61928 16.9331 9.61928 14.6038 9.61556C13.4958 9.61556 12.3884 9.6115 11.2804 9.61556C10.3043 9.62367 9.63212 10.2687 9.62095 11.2328C9.60776 12.4541 9.60776 13.676 9.62095 14.8983C9.62958 15.8117 10.3211 16.4811 11.2347 16.4836C11.9881 16.4836 12.7415 16.4836 13.4943 16.4836C13.6396 16.4841 13.7845 16.4972 13.9276 16.5227C14.8346 16.6871 15.4652 17.53 15.416 18.5058C15.3729 19.3629 14.6216 20.1597 13.7536 20.1982C12.8754 20.2373 11.9947 20.2246 11.1155 20.216C10.5752 20.215 10.1085 20.0003 9.71024 19.6385C9.68417 19.619 9.65631 19.602 9.62704 19.5878C9.62298 19.6324 9.61893 19.6568 9.61893 19.6811C9.61893 20.6118 9.61893 21.5425 9.61893 22.4722C9.61858 22.605 9.63339 22.7375 9.66306 22.867C9.84062 23.6059 10.4499 24.0849 11.222 24.0849C13.6592 24.0873 16.0963 24.0873 18.5335 24.0849L18.7146 24.0874ZM27.3714 23.3334C27.3705 22.2642 26.9465 21.2389 26.1921 20.4815C25.4377 19.7241 24.4142 19.2962 23.3454 19.2914C21.1132 19.2868 19.297 21.0827 19.2894 23.3004C19.2854 23.8331 19.3866 24.3613 19.5872 24.8548C19.7878 25.3483 20.0839 25.7973 20.4585 26.176C20.833 26.5547 21.2787 26.8557 21.7698 27.0617C22.261 27.2677 22.788 27.3746 23.3205 27.3763C25.5385 27.3895 27.3648 25.5626 27.3714 23.3334ZM9.62095 16.443C9.62095 17.0301 9.59305 17.5691 9.62704 18.1044C9.68082 18.9433 10.317 19.5842 11.0912 19.5979C11.9394 19.6124 12.7876 19.6124 13.6359 19.5979C14.3415 19.5857 14.9041 18.8824 14.789 18.1877C14.6789 17.5214 14.1888 17.1083 13.4887 17.1037C12.7607 17.0986 12.0322 17.1037 11.3042 17.1012C11.1399 17.1027 10.9757 17.0915 10.8131 17.0677C10.3647 16.9946 9.9847 16.7779 9.62095 16.443Z" fill="#2597D7"/>
<path d="M23.0184 23.0212V22.7923C23.0184 21.9571 23.0184 21.1216 23.0184 20.286C23.0184 20.0561 23.1437 19.9084 23.3289 19.9094C23.514 19.9104 23.6333 20.0475 23.6333 20.2697C23.6356 21.2765 23.6356 22.283 23.6333 23.2891C23.6333 23.5282 23.5211 23.6347 23.2807 23.6357C22.6543 23.6388 22.0286 23.6388 21.4036 23.6357C21.1778 23.6357 21.0459 23.5185 21.0449 23.3313C21.0439 23.144 21.1834 23.0207 21.4173 23.0202C21.9403 23.0202 22.4654 23.0212 23.0184 23.0212Z" fill="#2597D7"/>
</g>
<defs>
<clipPath id="clip0_247_26256">
<rect width="19" height="19" fill="white" transform="translate(9 9)"/>
</clipPath>
</defs>
</svg>
