<svg width="21" height="21" viewBox="0 0 21 21" fill="none" xmlns="http://www.w3.org/2000/svg">
<path id="Vector" d="M19.6671 18.8332H18.8337V12.166C18.8324 11.0613 18.393 10.0022 17.6118 9.221C16.8306 8.43983 15.7715 8.00039 14.6668 7.99906H11.3332V5.53138C11.7044 5.36935 12.0204 5.10261 12.2424 4.7638C12.4644 4.42499 12.5829 4.02881 12.5833 3.62373C12.3581 2.55847 11.851 1.57323 11.1148 0.77102C11.0367 0.685621 10.9417 0.61742 10.8358 0.570759C10.7299 0.524098 10.6155 0.5 10.4998 0.5C10.3841 0.5 10.2696 0.524098 10.1637 0.570759C10.0578 0.61742 9.96281 0.685621 9.88473 0.77102C9.14857 1.57323 8.64141 2.55847 8.41628 3.62373C8.41665 4.02881 8.5351 4.42499 8.75712 4.7638C8.97915 5.10261 9.29512 5.36935 9.66638 5.53138V7.99906H6.33279C5.22805 8.00039 4.16893 8.43983 3.38776 9.221C2.60658 10.0022 2.16714 11.0613 2.16581 12.166V18.8332H1.33242C1.11139 18.8332 0.899411 18.921 0.743119 19.0773C0.586827 19.2336 0.499023 19.4456 0.499023 19.6666C0.499023 19.8876 0.586827 20.0996 0.743119 20.2559C0.899411 20.4122 1.11139 20.5 1.33242 20.5H19.6671C19.8882 20.5 20.1001 20.4122 20.2564 20.2559C20.4127 20.0996 20.5005 19.8876 20.5005 19.6666C20.5005 19.4456 20.4127 19.2336 20.2564 19.0773C20.1001 18.921 19.8882 18.8332 19.6671 18.8332ZM6.33279 9.66585H14.6668C15.3298 9.66585 15.9658 9.92927 16.4347 10.3981C16.9035 10.867 17.1669 11.503 17.1669 12.166V13.8162C16.3869 13.7328 15.9168 13.2328 15.9168 12.9994C15.9168 12.7784 15.829 12.5664 15.6728 12.4101C15.5165 12.2538 15.3045 12.166 15.0834 12.166C14.8624 12.166 14.6504 12.2538 14.4941 12.4101C14.3379 12.5664 14.2501 12.7784 14.2501 12.9994C14.2501 13.2853 13.6817 13.8328 12.7916 13.8328C11.884 13.8328 11.3332 13.2545 11.3332 12.9994C11.3332 12.7784 11.2454 12.5664 11.0891 12.4101C10.9328 12.2538 10.7208 12.166 10.4998 12.166C10.2787 12.166 10.0668 12.2538 9.91047 12.4101C9.75418 12.5664 9.66638 12.7784 9.66638 12.9994C9.66638 13.2853 9.098 13.8328 8.20793 13.8328C7.30037 13.8328 6.74949 13.2545 6.74949 12.9994C6.74949 12.7784 6.66169 12.5664 6.5054 12.4101C6.3491 12.2538 6.13713 12.166 5.9161 12.166C5.69507 12.166 5.48309 12.2538 5.3268 12.4101C5.1705 12.5664 5.0827 12.7784 5.0827 12.9994C5.0827 13.262 4.60016 13.7395 3.83261 13.817V12.166C3.83261 11.503 4.09602 10.867 4.56489 10.3981C5.03377 9.92927 5.6697 9.66585 6.33279 9.66585ZM3.83261 15.4821C4.59824 15.4482 5.33099 15.1612 5.9161 14.6662C6.55895 15.2021 7.36877 15.4966 8.20568 15.4989C9.04259 15.5012 9.85401 15.2111 10.4998 14.6787C11.1455 15.2111 11.957 15.5012 12.7939 15.4989C13.6308 15.4966 14.4406 15.2021 15.0834 14.6662C15.6687 15.1609 16.4014 15.4476 17.1669 15.4813V18.8332H3.83261V15.4821Z" fill="#7A92CC"/>
</svg>
