<svg width="21" height="21" viewBox="0 0 21 21" fill="none" xmlns="http://www.w3.org/2000/svg">
<path id="Vector" d="M19.7675 8.04421L13.4467 1.71875C12.6644 0.938275 11.6047 0.5 10.5 0.5C9.39529 0.5 8.33564 0.938275 7.55334 1.71875L1.23251 8.04421C0.999531 8.27583 0.814818 8.55143 0.689079 8.85501C0.563339 9.1586 0.499075 9.48414 0.50001 9.81277V17.9985C0.50001 18.6619 0.763402 19.2982 1.23224 19.7673C1.70108 20.2365 2.33697 20.5 3.00001 20.5H18C18.6631 20.5 19.2989 20.2365 19.7678 19.7673C20.2366 19.2982 20.5 18.6619 20.5 17.9985V9.81277C20.5009 9.48414 20.4367 9.1586 20.3109 8.85501C20.1852 8.55143 20.0005 8.27583 19.7675 8.04421ZM13 18.8323H8.00001V15.552C8.00001 14.8886 8.2634 14.2523 8.73224 13.7832C9.20109 13.3141 9.83697 13.0505 10.5 13.0505C11.1631 13.0505 11.7989 13.3141 12.2678 13.7832C12.7366 14.2523 13 14.8886 13 15.552V18.8323ZM18.8333 17.9985C18.8333 18.2196 18.7455 18.4317 18.5893 18.5881C18.433 18.7445 18.221 18.8323 18 18.8323H14.6667V15.552C14.6667 14.4463 14.2277 13.3859 13.4463 12.604C12.6649 11.8221 11.6051 11.3829 10.5 11.3829C9.39494 11.3829 8.33513 11.8221 7.55373 12.604C6.77233 13.3859 6.33334 14.4463 6.33334 15.552V18.8323H3.00001C2.779 18.8323 2.56703 18.7445 2.41075 18.5881C2.25447 18.4317 2.16668 18.2196 2.16668 17.9985V9.81277C2.16745 9.59178 2.25517 9.37999 2.41084 9.22325L8.73168 2.90029C9.20143 2.43245 9.83723 2.16981 10.5 2.16981C11.1628 2.16981 11.7986 2.43245 12.2683 2.90029L18.5892 9.22575C18.7442 9.38188 18.8319 9.59265 18.8333 9.81277V17.9985Z" fill="#7A92CC"/>
</svg>
