<svg width="32" height="32" viewBox="0 0 32 32" fill="none" xmlns="http://www.w3.org/2000/svg">
<path id="Vector" fill-rule="evenodd" clip-rule="evenodd" d="M15.9167 0H16.0833C18.819 0 20.986 0 22.6813 0.227721C24.4257 0.462884 25.8381 0.957023 26.9529 2.07033C28.0662 3.18512 28.5604 4.59758 28.7955 6.34195C28.9488 7.47907 28.998 8.82753 29.0143 10.4186H29.3953C30.8331 10.4186 32 11.5855 32 13.0233V14.5116C32 15.3302 31.613 16.1042 30.9581 16.5953L29.0188 18.0495C29.0084 19.8832 28.9652 21.4132 28.7955 22.6813C28.5604 24.4257 28.0662 25.8381 26.9529 26.9529C26.6701 27.2357 26.368 27.4783 26.0465 27.6867V29.3953C26.0465 30.0861 25.7721 30.7486 25.2836 31.2371C24.7952 31.7256 24.1327 32 23.4419 32H21.2093C20.5185 32 19.856 31.7256 19.3675 31.2371C18.8791 30.7486 18.6047 30.0861 18.6047 29.3953V29.0143C17.8233 29.0233 16.9853 29.0233 16.0833 29.0233H15.9167C15.0147 29.0233 14.1753 29.0233 13.3953 29.0143V29.3953C13.3953 30.0861 13.1209 30.7486 12.6325 31.2371C12.144 31.7256 11.4815 32 10.7907 32H8.55814C7.86734 32 7.20484 31.7256 6.71637 31.2371C6.22791 30.7486 5.95349 30.0861 5.95349 29.3953V27.6867C5.62645 27.4746 5.32263 27.2286 5.04707 26.9529C3.93377 25.8381 3.43963 24.4257 3.20447 22.6813C3.03479 21.4132 2.99163 19.8832 2.98121 18.0495L1.04186 16.5953C0.386977 16.1042 0 15.3302 0 14.5116V13.0233C0 11.5855 1.16688 10.4186 2.60465 10.4186H2.98419C3.00205 8.82753 3.05116 7.47907 3.20447 6.34195C3.43963 4.59758 3.93377 3.18512 5.04707 2.07033C6.16186 0.957023 7.57433 0.462884 9.3187 0.227721C11.0154 0 13.181 0 15.9167 0ZM2.97674 12.6512H2.60465C2.50597 12.6512 2.41132 12.6904 2.34154 12.7601C2.27176 12.8299 2.23256 12.9246 2.23256 13.0233V14.5116C2.23256 14.5694 2.24601 14.6264 2.27184 14.678C2.29767 14.7297 2.33518 14.7746 2.3814 14.8093L2.97674 15.2558V12.6512ZM5.21823 18.6047C5.23312 20.1436 5.28074 21.37 5.41767 22.3851C5.6186 23.8809 5.99665 24.7442 6.62623 25.3738C7.25581 26.0033 8.11907 26.3814 9.61637 26.5823C11.1464 26.7877 13.1617 26.7907 16 26.7907C18.8383 26.7907 20.8536 26.7877 22.3851 26.5823C23.8809 26.3814 24.7442 26.0033 25.3738 25.3738C26.0033 24.7442 26.3814 23.8809 26.5823 22.3836C26.7193 21.3715 26.7654 20.1436 26.7818 18.6047H5.21823ZM26.7907 16.3721H5.2093V13.0233C5.2093 10.2207 5.21228 8.22028 5.41023 6.69767H26.5898C26.7877 8.22028 26.7907 10.2207 26.7907 13.0233V16.3721ZM29.0233 15.2558L29.6186 14.8093C29.6648 14.7746 29.7023 14.7297 29.7282 14.678C29.754 14.6264 29.7674 14.5694 29.7674 14.5116V13.0233C29.7674 12.9246 29.7282 12.8299 29.6585 12.7601C29.5887 12.6904 29.494 12.6512 29.3953 12.6512H29.0233V15.2558ZM25.9736 4.46512C25.8161 4.16443 25.6139 3.88941 25.3738 3.64949C24.7442 3.01991 23.8809 2.64186 22.3836 2.44093C20.8536 2.23554 18.8383 2.23256 16 2.23256C13.1617 2.23256 11.1464 2.23554 9.61488 2.44093C8.11907 2.64186 7.25581 3.01991 6.62623 3.64949C6.38629 3.88955 6.18406 4.16454 6.02642 4.46512H25.9736ZM8.18605 28.5916V29.3953C8.18605 29.6007 8.35274 29.7674 8.55814 29.7674H10.7907C10.8894 29.7674 10.984 29.7282 11.0538 29.6585C11.1236 29.5887 11.1628 29.494 11.1628 29.3953V28.9548C10.5462 28.9271 9.93095 28.8739 9.3187 28.7955C8.93817 28.7453 8.5602 28.6773 8.18605 28.5916ZM20.8372 28.9548V29.3953C20.8372 29.6007 21.0039 29.7674 21.2093 29.7674H23.4419C23.5405 29.7674 23.6352 29.7282 23.705 29.6585C23.7748 29.5887 23.814 29.494 23.814 29.3953V28.5916C23.4399 28.6777 23.0619 28.7457 22.6813 28.7955C22.0691 28.8739 21.4538 28.9271 20.8372 28.9548ZM7.44186 21.9535C7.44186 21.6574 7.55947 21.3735 7.76881 21.1642C7.97815 20.9548 8.26208 20.8372 8.55814 20.8372H10.7907C11.0868 20.8372 11.3707 20.9548 11.58 21.1642C11.7894 21.3735 11.907 21.6574 11.907 21.9535C11.907 22.2495 11.7894 22.5335 11.58 22.7428C11.3707 22.9522 11.0868 23.0698 10.7907 23.0698H8.55814C8.26208 23.0698 7.97815 22.9522 7.76881 22.7428C7.55947 22.5335 7.44186 22.2495 7.44186 21.9535ZM20.093 21.9535C20.093 21.6574 20.2106 21.3735 20.42 21.1642C20.6293 20.9548 20.9132 20.8372 21.2093 20.8372H23.4419C23.7379 20.8372 24.0218 20.9548 24.2312 21.1642C24.4405 21.3735 24.5581 21.6574 24.5581 21.9535C24.5581 22.2495 24.4405 22.5335 24.2312 22.7428C24.0218 22.9522 23.7379 23.0698 23.4419 23.0698H21.2093C20.9132 23.0698 20.6293 22.9522 20.42 22.7428C20.2106 22.5335 20.093 22.2495 20.093 21.9535Z" fill="#637EC0"/>
</svg>
