<svg width="25" height="24" viewBox="0 0 25 24" fill="none" xmlns="http://www.w3.org/2000/svg">
<g id="volunteer_activism">
<mask id="mask0_5449_134" style="mask-type:alpha" maskUnits="userSpaceOnUse" x="0" y="0" width="25" height="24">
<rect id="Bounding box" x="0.5" width="24" height="24" fill="#D9D9D9"/>
</mask>
<g mask="url(#mask0_5449_134)">
<path id="volunteer_activism_2" d="M16.5 13C15.7333 12.3 14.9875 11.6125 14.2625 10.9375C13.5375 10.2625 12.8958 9.6 12.3375 8.95C11.7792 8.3 11.3333 7.67083 11 7.0625C10.6667 6.45417 10.5 5.86667 10.5 5.3C10.5 4.36667 10.8167 3.58333 11.45 2.95C12.0833 2.31667 12.8667 2 13.8 2C14.3333 2 14.8333 2.1125 15.3 2.3375C15.7667 2.5625 16.1667 2.86667 16.5 3.25C16.8333 2.86667 17.2333 2.5625 17.7 2.3375C18.1667 2.1125 18.6667 2 19.2 2C20.1333 2 20.9167 2.31667 21.55 2.95C22.1833 3.58333 22.5 4.36667 22.5 5.3C22.5 5.86667 22.3333 6.45417 22 7.0625C21.6667 7.67083 21.2208 8.3 20.6625 8.95C20.1042 9.6 19.4667 10.2625 18.75 10.9375C18.0333 11.6125 17.2833 12.3 16.5 13ZM16.5 10.3C17.4833 9.36667 18.3958 8.4375 19.2375 7.5125C20.0792 6.5875 20.5 5.85 20.5 5.3C20.5 4.91667 20.3792 4.60417 20.1375 4.3625C19.8958 4.12083 19.5833 4 19.2 4C18.9667 4 18.7458 4.04583 18.5375 4.1375C18.3292 4.22917 18.15 4.36667 18 4.55L16.5 6.35L15 4.55C14.85 4.36667 14.6708 4.22917 14.4625 4.1375C14.2542 4.04583 14.0333 4 13.8 4C13.4167 4 13.1042 4.12083 12.8625 4.3625C12.6208 4.60417 12.5 4.91667 12.5 5.3C12.5 5.85 12.9208 6.5875 13.7625 7.5125C14.6042 8.4375 15.5167 9.36667 16.5 10.3ZM14.5 22.5L7.5 20.55V22H1.5V11H9.45L15.65 13.3C16.2 13.5 16.6458 13.85 16.9875 14.35C17.3292 14.85 17.5 15.4 17.5 16H19.5C20.3333 16 21.0417 16.275 21.625 16.825C22.2083 17.375 22.5 18.1 22.5 19V20L14.5 22.5ZM3.5 20H5.5V13H3.5V20ZM14.45 20.4L20.4 18.55C20.35 18.3667 20.2375 18.2292 20.0625 18.1375C19.8875 18.0458 19.7 18 19.5 18H14.7C14.1833 18 13.7167 17.9667 13.3 17.9C12.8833 17.8333 12.4333 17.7167 11.95 17.55L10.225 16.95L10.8 15.05L12.8 15.7C13.1 15.8 13.45 15.875 13.85 15.925C14.25 15.975 14.8 16 15.5 16C15.5 15.8167 15.4458 15.6417 15.3375 15.475C15.2292 15.3083 15.1 15.2 14.95 15.15L9.1 13H7.5V18.5L14.45 20.4Z" fill="#999999"/>
</g>
</g>
</svg>
